<?xml version="1.0" encoding="utf-8"?>
<!-- Generator: Adobe Illustrator 17.0.0, SVG Export Plug-In . SVG Version: 6.00 Build 0)  -->
<!DOCTYPE svg PUBLIC "-//W3C//DTD SVG 1.1//EN" "http://www.w3.org/Graphics/SVG/1.1/DTD/svg11.dtd">
<svg version="1.1"
	 id="svg2987" xmlns:dc="http://purl.org/dc/elements/1.1/" xmlns:cc="http://creativecommons.org/ns#" xmlns:rdf="http://www.w3.org/1999/02/22-rdf-syntax-ns#" xmlns:svg="http://www.w3.org/2000/svg" xmlns:inkscape="http://www.inkscape.org/namespaces/inkscape" xmlns:sodipodi="http://sodipodi.sourceforge.net/DTD/sodipodi-0.dtd" inkscape:version="0.48.5 r10040" sodipodi:docname="display.svg"
	 xmlns="http://www.w3.org/2000/svg" xmlns:xlink="http://www.w3.org/1999/xlink" x="0px" y="0px" width="36.571px" height="32px"
	 viewBox="0 0 36.571 32" enable-background="new 0 0 36.571 32" xml:space="preserve">
<sodipodi:namedview  id="namedview2991" objecttolerance="10" gridtolerance="10" showgrid="false" inkscape:zoom="14.75" inkscape:cx="16" pagecolor="#ffffff" fit-margin-top="0" bordercolor="#666666" borderopacity="1" fit-margin-left="0" guidetolerance="10" inkscape:cy="21.423729" inkscape:pageopacity="0" inkscape:pageshadow="2" inkscape:window-width="1920" inkscape:window-height="1017" fit-margin-right="0" fit-margin-bottom="0" inkscape:window-y="-8" inkscape:window-maximized="1" inkscape:window-x="-8" inkscape:current-layer="svg2987">
	</sodipodi:namedview>
<path id="path4" inkscape:connector-curvature="0" fill="#444444" d="M11.418,26.461c-1.438,1.412-0.223,2.862-2.133,5.01
	c-0.862,0.971,3.548,0.675,5.732-1.472c0.927-0.912,0.665-2.239-0.328-3.216C13.695,25.807,12.344,25.549,11.418,26.461z
	 M27.34,14.214c-0.736-0.725-8.901,5.817-11.331,8.206c-1.206,1.186-1.609,1.822-1.978,2.297c-0.161,0.208,0.052,0.27,0.146,0.319
	c0.478,0.245,0.812,0.471,1.244,0.895s0.663,0.753,0.91,1.223c0.05,0.093,0.115,0.302,0.325,0.144
	c0.484-0.364,1.13-0.76,2.337-1.945C21.423,22.965,28.078,14.938,27.34,14.214z"/>
</svg>
