<?xml version="1.0" encoding="UTF-8" standalone="no"?>
<!-- Generated by IcoMoon.io -->

<svg
   xmlns:dc="http://purl.org/dc/elements/1.1/"
   xmlns:cc="http://creativecommons.org/ns#"
   xmlns:rdf="http://www.w3.org/1999/02/22-rdf-syntax-ns#"
   xmlns:svg="http://www.w3.org/2000/svg"
   xmlns="http://www.w3.org/2000/svg"
   xmlns:sodipodi="http://sodipodi.sourceforge.net/DTD/sodipodi-0.dtd"
   xmlns:inkscape="http://www.inkscape.org/namespaces/inkscape"
   version="1.1"
   width="20"
   height="20"
   viewBox="0 0 20 20"
   id="svg2"
   inkscape:version="0.48.5 r10040"
   sodipodi:docname="brush2.svg">
  <metadata
     id="metadata10">
    <rdf:RDF>
      <cc:Work
         rdf:about="">
        <dc:format>image/svg+xml</dc:format>
        <dc:type
           rdf:resource="http://purl.org/dc/dcmitype/StillImage" />
        <dc:title />
      </cc:Work>
    </rdf:RDF>
  </metadata>
  <defs
     id="defs8" />
  <sodipodi:namedview
     pagecolor="#ffffff"
     bordercolor="#666666"
     borderopacity="1"
     objecttolerance="10"
     gridtolerance="10"
     guidetolerance="10"
     inkscape:pageopacity="0"
     inkscape:pageshadow="2"
     inkscape:window-width="1920"
     inkscape:window-height="1017"
     id="namedview6"
     showgrid="false"
     inkscape:zoom="11.8"
     inkscape:cx="10"
     inkscape:cy="10"
     inkscape:window-x="-8"
     inkscape:window-y="-8"
     inkscape:window-maximized="1"
     inkscape:current-layer="svg2" />
  <path
     d="M 5.2959565,9.426471 C 4.3111275,10.393748 5.1431942,11.387028 3.8352894,12.858096 3.2450423,13.523099 6.2651841,13.320282 7.7609539,11.849865 8.3960549,11.225165 8.2166405,10.316392 7.536036,9.6468387 6.8554314,8.9785843 5.9304074,8.8017708 5.2959565,9.426471 z M 16.201229,1.0381987 C 15.696789,0.54155897 10.104392,5.022368 8.4402584,6.658549 7.6140422,7.4711138 7.3384201,7.9066484 7.0855498,8.2316754 6.975041,8.3740371 7.1213022,8.4169392 7.185658,8.4500921 7.5132841,8.6178067 7.7421025,8.7725188 8.0378762,9.0630914 8.3336498,9.3536657 8.4922626,9.5785828 8.661276,9.9010086 8.6957295,9.9647115 8.7399331,10.107725 8.8835939,9.999817 9.2151209,9.7508468 9.6578062,9.4791259 10.484022,8.6678595 12.148806,7.032329 16.706971,1.5341884 16.201229,1.0381987 z"
     id="path4"
     inkscape:connector-curvature="0"
     style="fill:#444444" />
</svg>
