<?xml version="1.0" encoding="utf-8"?>
<!-- Generator: Adobe Illustrator 17.0.0, SVG Export Plug-In . SVG Version: 6.00 Build 0)  -->
<!DOCTYPE svg PUBLIC "-//W3C//DTD SVG 1.1//EN" "http://www.w3.org/Graphics/SVG/1.1/DTD/svg11.dtd">
<svg version="1.1"
	 id="svg2987" xmlns:dc="http://purl.org/dc/elements/1.1/" xmlns:cc="http://creativecommons.org/ns#" xmlns:rdf="http://www.w3.org/1999/02/22-rdf-syntax-ns#" xmlns:svg="http://www.w3.org/2000/svg" xmlns:inkscape="http://www.inkscape.org/namespaces/inkscape" xmlns:sodipodi="http://sodipodi.sourceforge.net/DTD/sodipodi-0.dtd" inkscape:version="0.48.5 r10040" sodipodi:docname="display.svg"
	 xmlns="http://www.w3.org/2000/svg" xmlns:xlink="http://www.w3.org/1999/xlink" x="0px" y="0px" width="36.571px" height="32px"
	 viewBox="0 0 36.571 32" enable-background="new 0 0 36.571 32" xml:space="preserve">
<sodipodi:namedview  id="namedview2991" objecttolerance="10" gridtolerance="10" showgrid="false" inkscape:zoom="14.75" inkscape:cx="16" pagecolor="#ffffff" fit-margin-top="0" bordercolor="#666666" borderopacity="1" fit-margin-left="0" guidetolerance="10" inkscape:cy="21.423729" inkscape:pageopacity="0" inkscape:pageshadow="2" inkscape:window-width="1920" inkscape:window-height="1017" fit-margin-right="0" fit-margin-bottom="0" inkscape:window-y="-8" inkscape:window-maximized="1" inkscape:window-x="-8" inkscape:current-layer="svg2987">
	</sodipodi:namedview>
<path fill="#444444" d="M10.556,31.549c-0.426,0-0.856-0.15-1.199-0.455l-9.136-8.121L9.864,14.4
	c0.744-0.659,1.885-0.596,2.548,0.15s0.596,1.887-0.15,2.549l-6.607,5.873l6.099,5.42c0.746,0.663,0.812,1.804,0.15,2.549
	C11.549,31.345,11.053,31.549,10.556,31.549z M26.707,31.545l9.643-8.573l-9.136-8.121c-0.746-0.663-1.887-0.596-2.548,0.15
	c-0.661,0.746-0.596,1.887,0.15,2.549l6.099,5.422l-6.607,5.872c-0.746,0.663-0.812,1.804-0.15,2.549
	C24.514,31.796,25.01,32,25.507,32C25.934,32,26.364,31.851,26.707,31.545z M18.09,30.88l3.439-15.452
	c0.156-0.702-0.476-1.365-1.414-1.482c-0.941-0.118-1.824,0.357-1.978,1.058l-3.439,15.452c-0.156,0.702,0.476,1.365,1.414,1.482
	c0.096,0.012,0.189,0.017,0.284,0.017C17.221,31.955,17.95,31.508,18.09,30.88z"/>
</svg>
