<?xml version="1.0" encoding="utf-8"?>
<!-- Generator: Adobe Illustrator 17.0.0, SVG Export Plug-In . SVG Version: 6.00 Build 0)  -->
<!DOCTYPE svg PUBLIC "-//W3C//DTD SVG 1.1//EN" "http://www.w3.org/Graphics/SVG/1.1/DTD/svg11.dtd">
<svg version="1.1"
	 id="svg3238" xmlns:rdf="http://www.w3.org/1999/02/22-rdf-syntax-ns#" xmlns:svg="http://www.w3.org/2000/svg" xmlns:cc="http://creativecommons.org/ns#" xmlns:dc="http://purl.org/dc/elements/1.1/"
	 xmlns="http://www.w3.org/2000/svg" xmlns:xlink="http://www.w3.org/1999/xlink" x="0px" y="0px" width="180px" height="164px"
	 viewBox="0 0 180 164" enable-background="new 0 0 180 164" xml:space="preserve">
<g id="layer1" transform="translate(12.139287,-317.32811)">
	<g id="g3313" transform="matrix(5.314228,0,0,5.314228,52.371647,-1369.0259)">
		<g id="g2995" transform="matrix(1.25,0,0,-1.25,-297.76179,1329.6505)">
			<g>
				<g>
					<defs>
						<rect id="SVGID_1_" x="-2307.953" y="-2881.889" width="5100" height="7212.851"/>
					</defs>
					<clipPath id="SVGID_2_">
						<use xlink:href="#SVGID_1_"  overflow="visible"/>
					</clipPath>
					<g id="g2997" clip-path="url(#SVGID_2_)">
						<g id="g3003" transform="translate(255.4046,797.0688)">
							<path id="path3005" fill="#BA0C2F" d="M-21.558,0.494h0.466c0-0.058,0.006-0.218,0.054-0.344
								c0.152-0.396,0.446-0.519,0.952-0.519c0.455,0,0.97,0.178,0.97,0.649c0,0.47-0.408,0.587-0.817,0.63l0.002,0.427
								c0.634-0.058,1.245-0.315,1.245-1.061c0-0.716-0.649-1.08-1.402-1.08c-0.709,0-1.21,0.247-1.41,0.86
								C-21.549,0.219-21.558,0.409-21.558,0.494"/>
						</g>
						<g id="g3007" transform="translate(269.2581,806.0529)">
							<path id="path3009" fill="#BA0C2F" d="M-32.722-6.745c-0.181,0.485-0.691,0.739-1.3,0.739c-0.586,0-1.347-0.258-1.347-1.022
								c0-0.762,0.601-0.999,1.212-1.017v0.427c-0.377,0.033-0.756,0.156-0.756,0.586c0,0.47,0.463,0.61,0.879,0.61
								c0.43,0,0.769-0.156,0.883-0.495c0.025-0.074,0.038-0.159,0.041-0.198l0.462,0.002C-32.647-7.063-32.661-6.907-32.722-6.745"
								/>
						</g>
					</g>
				</g>
			</g>
		</g>
		<g id="g3011" transform="matrix(1.25,0,0,-1.25,105.56896,341.01783)">
			<path id="path3013" fill="#BA0C2F" d="M-75.759,5.461l-0.831,1.33h0.502l0.831-1.33H-75.759z"/>
		</g>
		<g id="g3015" transform="matrix(1.25,0,0,-1.25,-297.76179,1329.6505)">
			<g>
				<g>
					<defs>
						<rect id="SVGID_3_" x="-2307.953" y="-2881.889" width="5100" height="7212.851"/>
					</defs>
					<clipPath id="SVGID_4_">
						<use xlink:href="#SVGID_3_"  overflow="visible"/>
					</clipPath>
					<g id="g3017" clip-path="url(#SVGID_4_)">
						<g id="g3023" transform="translate(319.2907,809.4064)">
							<path id="path3025" fill="#BA0C2F" d="M-73.04-9.448c0.564,0.01,0.985-0.438,0.985-0.98c0-0.543-0.452-0.992-0.988-0.981
								h-0.99v0.425c0,0,0.7,0,0.993,0.005c0.282,0.005,0.559,0.246,0.559,0.553c0,0.302-0.233,0.543-0.559,0.549
								c-0.283,0.005-0.992,0.005-0.992,0.005v0.425h0.991V-9.448z"/>
						</g>
					</g>
				</g>
			</g>
		</g>
		<path id="path3027" fill="#BA0C2F" d="M7.806,329.702h0.535v4.49H7.806V329.702z"/>
		<g id="g3029" transform="matrix(1.25,0,0,-1.25,-297.76179,1329.6505)">
			<g>
				<g>
					<defs>
						<rect id="SVGID_5_" x="-2307.953" y="-2881.889" width="5100" height="7212.851"/>
					</defs>
					<clipPath id="SVGID_6_">
						<use xlink:href="#SVGID_5_"  overflow="visible"/>
					</clipPath>
					<g id="g3031" clip-path="url(#SVGID_6_)">
						<g id="g3037" transform="translate(292.0392,809.4064)">
							<path id="path3039" fill="#BA0C2F" d="M-51.079-9.448c0.564,0.01,0.985-0.438,0.985-0.98c0-0.544-0.453-0.992-0.989-0.981
								h-0.834v0.425c0,0,0.544-0.001,0.837,0.003c0.282,0.005,0.559,0.246,0.559,0.553c0,0.302-0.233,0.543-0.559,0.549
								c-0.281,0.005-0.837,0.005-0.837,0.005v0.425H-51.079z"/>
						</g>
					</g>
				</g>
			</g>
		</g>
		<g id="g3041" transform="matrix(1.25,0,0,-1.25,56.726594,317.8917)">
			<path id="path3043" fill="#BA0C2F" d="M-44.271-9.448h0.428l-0.001-3.592h-0.427V-9.448z"/>
		</g>
		<path id="path3045" fill="#BA0C2F" d="M19.706,330.706h0.535v3.485h-0.535V330.706z"/>
		<path id="path3047" fill="#BA0C2F" d="M21.577,329.702H18.37v0.535h3.207V329.702z"/>
		<path id="path3049" fill="#BA0C2F" d="M14.571,329.702h0.535v4.49h-0.535V329.702z"/>
		<path id="path3051" fill="#BA0C2F" d="M-11.983,329.702h3.207v0.535h-3.207V329.702z"/>
		<path id="path3053" fill="#BA0C2F" d="M-11.983,333.66h3.207v0.531h-3.207V333.66z"/>
		<path id="path3055" fill="#BA0C2F" d="M-11.983,331.682h3.207v0.533h-3.207V331.682z"/>
	</g>
</g>
</svg>
