<?xml version="1.0" encoding="utf-8"?>
<!-- Generator: Adobe Illustrator 17.0.0, SVG Export Plug-In . SVG Version: 6.00 Build 0)  -->
<!DOCTYPE svg PUBLIC "-//W3C//DTD SVG 1.1//EN" "http://www.w3.org/Graphics/SVG/1.1/DTD/svg11.dtd">
<svg version="1.1" id="Ebene_1" xmlns="http://www.w3.org/2000/svg" xmlns:xlink="http://www.w3.org/1999/xlink" x="0px" y="0px"
	 width="32px" height="32px" viewBox="0 0 32 32" enable-background="new 0 0 32 32" xml:space="preserve">
<circle fill="#FFFFFF" cx="16" cy="16" r="14.833"/>
<path fill="#444444" d="M16,0C7.163,0,0,7.163,0,16s7.163,16,16,16s16-7.163,16-16S24.837,0,16,0z M25.502,25.502
	c-1.235,1.235-2.672,2.204-4.272,2.881c-0.406,0.172-0.819,0.323-1.238,0.453v-2.398c0-1.26-0.432-2.188-1.297-2.781
	c0.542-0.052,1.039-0.125,1.492-0.219s0.932-0.229,1.438-0.406s0.958-0.388,1.359-0.633s0.786-0.563,1.156-0.953
	s0.68-0.833,0.93-1.328s0.448-1.089,0.594-1.781s0.219-1.456,0.219-2.289c0-1.615-0.526-2.99-1.578-4.125
	c0.479-1.25,0.427-2.609-0.156-4.078l-0.391-0.047C23.487,7.767,23,7.881,22.297,8.142S20.805,8.83,19.93,9.423
	c-1.24-0.344-2.526-0.516-3.859-0.516c-1.344,0-2.625,0.172-3.844,0.516c-0.552-0.375-1.075-0.685-1.57-0.93s-0.891-0.411-1.188-0.5
	S8.896,7.85,8.641,7.829S8.222,7.803,8.149,7.813S8.024,7.834,7.993,7.844c-0.583,1.479-0.635,2.839-0.156,4.078
	c-1.052,1.135-1.578,2.51-1.578,4.125c0,0.833,0.073,1.596,0.219,2.289s0.344,1.286,0.594,1.781s0.56,0.938,0.93,1.328
	c0.37,0.39,0.755,0.708,1.156,0.953s0.854,0.456,1.359,0.633s0.984,0.313,1.438,0.406s0.95,0.167,1.492,0.219
	c-0.854,0.583-1.281,1.51-1.281,2.781v2.445c-0.472-0.14-0.937-0.306-1.394-0.5c-1.6-0.677-3.037-1.646-4.272-2.881
	s-2.204-2.672-2.881-4.272c-0.7-1.655-1.055-3.414-1.055-5.23s0.355-3.575,1.055-5.23c0.677-1.6,1.646-3.037,2.881-4.272
	s2.672-2.204,4.272-2.881c1.655-0.7,3.415-1.055,5.23-1.055s3.575,0.355,5.23,1.055c1.6,0.677,3.037,1.646,4.272,2.881
	s2.204,2.672,2.881,4.272c0.7,1.655,1.055,3.415,1.055,5.23s-0.355,3.575-1.055,5.23c-0.677,1.6-1.646,3.037-2.881,4.272
	L25.502,25.502z"/>
</svg>
