<?xml version="1.0" encoding="utf-8"?>
<!-- Generator: Adobe Illustrator 17.0.0, SVG Export Plug-In . SVG Version: 6.00 Build 0)  -->
<!DOCTYPE svg PUBLIC "-//W3C//DTD SVG 1.1//EN" "http://www.w3.org/Graphics/SVG/1.1/DTD/svg11.dtd">
<svg version="1.1" id="svg2811" xmlns:svg="http://www.w3.org/2000/svg"
	 xmlns="http://www.w3.org/2000/svg" xmlns:xlink="http://www.w3.org/1999/xlink" x="0px" y="0px" width="180px" height="164px"
	 viewBox="264.331 151.747 180 164" enable-background="new 264.331 151.747 180 164" xml:space="preserve">
<g id="layer1" transform="translate(-4397.099,-577.1118)">
	<g id="g45263" transform="translate(10.62987,8.863696)">
		<path id="path45125" fill="#CC071E" d="M4777.298,746.225c6.538-3.211,9.778-2.79,9.851,0.465
			c0.087,4.228-0.538,9.851-0.988,13.919c-2.426,22.112-6.48,40.18-6.785,62.884c10.679-27.646,19.629-46.861,31.165-70.526
			c3.662-7.541,6.001-6.131,9.008-7.468c11.71-5.216,12.146-2.02,10.621,4.359c-5.681,23.625-20.225,98.008-22.447,109.461
			c-0.64,3.314-4.243,1.909-5.173,0.613c-4.169-5.768-8.877-5.858-8.354-9.694c2.616-19.096,12.03-67.007,14.486-78.296
			c-12.51,25.647-25.484,57.708-32.153,75.888c-1.409,3.86-3.981,3.577-5.579,0.753c-2.252-3.968-6.625-5.993-7.352-10.682
			c-2.281-14.907,2.615-43.32,3.298-61.296c-6.814,19.636-18.249,57.759-23.261,74.984c-2.063,7.127-8.95,5.964-7.119-0.982
			c7.613-28.906,24.017-80.03,31.107-98.409C4769.292,747.866,4773.665,748.012,4777.298,746.225"/>
		<path id="path45127" fill="#CC071E" d="M4735.773,742.679c-2.208-0.537-8.616,2.92-12.553,3.603
			c-1.25,0.218-2.441,1.54-2.862,2.485c-6.306,14.486-11.958,28.294-16.854,40.873c-6.262,1.069-13.584,2.477-21.779,4.318
			c5.87-15.057,11.798-29.907,17.581-44.189c2.847-7.032-4.649-7.701-7.556-0.581c-3.777,9.255-10.853,26.596-18.685,46.807
			c-5.753,1.411-11.855,3.023-18.234,4.866c-4.635,1.338-4.824,2.573-2.818,5.353c1.104,1.548,3.385,1.392,4.431,2.495
			c2.703,2.858,4.344,6.277,9.182,6.794c-4.315,11.543-8.63,23.447-12.539,34.909c-2.456,7.195,4.533,8.667,7.221,1.053
			c4.33-12.273,8.892-24.694,13.584-37.078c3.909-0.908,13.367-2.945,22.099-4.84c-6.931,18.995-11.493,33.422-13.222,40.444
			c-0.319,1.351,0.218,2.101,0.508,2.652c2.339,3.404,4.563,3.544,7.57,7.753c0.814,1.148,3.545,1.767,4.475-1.059
			c6.422-19.398,13.033-37.599,19.193-53.915c2.557-0.559,7.163-1.671,9.981-5.877c5.012-7.465,6.451-5.951,7.657-8.221
			c1.511-2.849,0.508-5.524-4.838-4.863c0,0-2.02,0.144-5.753,0.57c5.928-15.263,11.115-28.208,14.849-38.074
			C4737.691,745.614,4737.851,743.173,4735.773,742.679"/>
		<path id="path45129" fill="#CC071E" d="M4727.027,841.673c1.38,3.488,5.695,2.432,4.054-1.778
			c-1.671-4.289-5.827-17.201-6.917-21.361c-1.482-5.605,4.94-4.072,1.686-0.408c-2.789,3.151-4.649,4.414-9.807,10.406
			c-4.983,5.784-3.632,13.29,1.7,14.948c6.015,1.871,11.318-4.757,14.602-9.62c3.182-4.709,0.102-7.471-3.109-4.687
			c-2.063,1.79-4.446,4.539-6.858,6.021c-1.961,1.193-3.501-0.089-0.886-3.689c3.037-4.168,6.437-7.661,8.964-11.6
			c5.158-8.027-5.042-12.655-9.429-7.44c-2.354,2.78-1.758,5.508-1.119,7.85C4720.939,824.065,4724.774,836.04,4727.027,841.673"/>
	</g>
</g>
</svg>
