<?xml version="1.0" encoding="utf-8"?>
<!-- Generator: Adobe Illustrator 17.0.0, SVG Export Plug-In . SVG Version: 6.00 Build 0)  -->
<!DOCTYPE svg PUBLIC "-//W3C//DTD SVG 1.1//EN" "http://www.w3.org/Graphics/SVG/1.1/DTD/svg11.dtd">
<svg version="1.1" id="Ebene_1" xmlns="http://www.w3.org/2000/svg" xmlns:xlink="http://www.w3.org/1999/xlink" x="0px" y="0px"
	 width="1080px" height="1080px" viewBox="0 0 1080 1080" enable-background="new 0 0 1080 1080" xml:space="preserve">
<g>
	<rect fill="#F7DF1E" width="1080" height="1080"/>
	<path d="M725.486,843.754c21.754,35.52,50.057,61.629,100.114,61.629c42.052,0,68.914-21.017,68.914-50.057
		c0-34.8-27.6-47.126-73.886-67.371l-25.371-10.886c-73.234-31.2-121.886-70.286-121.886-152.914
		c0-76.114,57.994-134.057,148.629-134.057c64.526,0,110.914,22.457,144.343,81.257l-79.029,50.743
		c-17.4-31.2-36.171-43.491-65.314-43.491c-29.726,0-48.566,18.857-48.566,43.491c0,30.446,18.857,42.771,62.4,61.629l25.371,10.869
		c86.229,36.977,134.914,74.674,134.914,159.429c0,91.371-71.777,141.429-168.171,141.429c-94.251,0-155.143-44.914-184.937-103.783
		L725.486,843.754z M366.977,852.549c15.943,28.286,30.446,52.2,65.314,52.2c33.343,0,54.377-13.046,54.377-63.771V495.891h101.486
		v346.457c0,105.086-61.611,152.914-151.543,152.914c-81.257,0-128.314-42.051-152.246-92.7L366.977,852.549z"/>
</g>
</svg>
