<?xml version="1.0" encoding="utf-8"?>
<!-- Generator: Adobe Illustrator 17.0.0, SVG Export Plug-In . SVG Version: 6.00 Build 0)  -->
<!DOCTYPE svg PUBLIC "-//W3C//DTD SVG 1.1//EN" "http://www.w3.org/Graphics/SVG/1.1/DTD/svg11.dtd">
<svg version="1.1" id="Ebene_1" xmlns="http://www.w3.org/2000/svg" xmlns:xlink="http://www.w3.org/1999/xlink" x="0px" y="0px"
	 width="1920px" height="429.037px" viewBox="0 0 1920 429.037" enable-background="new 0 0 1920 429.037" xml:space="preserve">
<g>
	<path fill="#131B28" d="M822.439,167.589l0.004-0.018l-12.167,43.121L822.439,167.589L822.439,167.589z"/>
	<path fill="#131B28" d="M885.016,261.204l-13.408-0.08L885.016,261.204z"/>
	<path fill="#131B28" d="M881.568,325.6h0.014l-80.33,0.293l80.319-0.293H881.568z"/>
	<path fill="#131B28" d="M898.41,261.284l-13.412-0.08L898.41,261.284z"/>
	<path fill="#131B28" d="M888.609,320.126l13.993-53.365l-13.993,53.376v-0.007V320.126z"/>
	<path fill="#131B28" d="M1184.362,74.373l-26.067,122.541L1184.362,74.373z"/>
	<path fill="#131B28" d="M1117.357,74.373l-19.788,91.542l19.788-91.55V74.373z"/>
	<path fill="#131B28" d="M1179.898,68.86h-55.739c-3.093,0-6.163,2.481-6.824,5.503l-19.788,91.55l-19.788,91.55
		c-0.656,3.022-3.722,5.494-6.815,5.494h-33.821h-5.632c-39.031,0-34.516-26.993-26.523-63.982c0.08-0.372,0.16-0.736,0.239-1.117
		l0.877-4.661c0.053-0.301,0.115-0.603,0.164-0.877l1.781-9.491l1.91-10.173c0.58-3.066,1.462-7.55,2.038-10.368l8.995-43.953
		l9.004-43.953c0.62-3.031-1.409-5.521-4.502-5.521h-57.212c-3.093,0-6.155,2.49-6.788,5.512l-12.3,58.363l-12.3,58.356
		c-0.011,0.025-0.015,0.062-0.018,0.089l-1.143,5.424c-14.17,64.69-10.412,126.377,66.595,128.308
		c1.258,0.036,2.233,0.045,2.233,0.045h120.878c3.093,0,6.155-2.481,6.802-5.512l26.067-122.53l26.067-122.541
		c0.643-3.031-1.365-5.512-4.457-5.512L1179.898,68.86z"/>
	<path fill="#131B28" d="M1402.257,263.596c3.097,0,5.122,2.481,4.502,5.512l-5.415,26.452"/>
	<path fill="#131B28" d="M1395.941,322.028l5.41-26.47l-5.414,26.479c0-0.007,0.004-0.007,0.004-0.007V322.028z"/>
	<path fill="#131B28" d="M1389.153,327.596c0.007,0,0.018-0.007,0.025-0.007c-16.403,0.133-65.695,0.505-102.744,0.505
		c45.089,0,102.715-0.496,102.715-0.496L1389.153,327.596z"/>
	<path fill="#131B28" d="M1253.182,229.524c-0.045-2.898,3.252-7.887,6.349-7.887l-6.961-0.115
		C1249.434,253.069,1253.183,229.524,1253.182,229.524L1253.182,229.524z"/>
	<path fill="#131B28" d="M1291.513,328.082c-0.354,0-0.718,0-1.072,0.007C1290.795,328.082,1291.158,328.082,1291.513,328.082z"/>
	<path fill="#131B28" d="M1402.257,263.596c3.097,0,5.122,2.481,4.502,5.512l-5.415,26.452l-0.882,4.316"/>
	<path fill="#131B28" d="M1317.901,328.021h-0.226H1317.901z"/>
	<path fill="#131B28" d="M1304.217,328.064h-0.793H1304.217z"/>
	<path fill="#131B28" d="M1300.043,328.075c-0.443,0-0.877,0-1.312,0.007C1299.165,328.075,1299.599,328.075,1300.043,328.075z"/>
	<path fill="#131B28" d="M1295.796,328.082h-1.152H1295.796z"/>
	<path fill="#131B28" d="M1303.418,328.064c-1.13,0-2.26,0.007-3.376,0.007C1301.159,328.072,1302.288,328.064,1303.418,328.064z"/>
	<path fill="#131B28" d="M1317.683,328.021c-4.511,0.018-9.012,0.036-13.448,0.045
		C1308.671,328.059,1313.177,328.041,1317.683,328.021z"/>
	<path fill="#131B28" d="M1389.189,327.585h0.004c-12.021,0.098-41.706,0.319-71.31,0.434
		C1347.472,327.913,1377.164,327.683,1389.189,327.585z"/>
	<path fill="#131B28" d="M1395.941,322.039l4.533-22.163l-4.537,22.181C1395.936,322.049,1395.94,322.049,1395.941,322.039
		L1395.941,322.039z"/>
	<path fill="#131B28" d="M1298.736,328.082h-2.942H1298.736z"/>
	<path fill="#131B28" d="M1290.424,328.09h-3.979H1290.424z"/>
	<path fill="#131B28" d="M1294.634,328.082h-3.137H1294.634z"/>
	<path fill="#131B28" d="M479.282,230.188l8.658-38.381l-9.898,43.873l-9.5,44.69l8.326-39.176
		C477.509,238.163,478.599,233.209,479.282,230.188L479.282,230.188z"/>
	<path fill="#131B28" d="M582.911,68.214h-61.212c-3.097,0-6.185,2.472-6.877,5.485l-5.804,25.619l-5.804,25.628
		c-0.682,3.013,1.289,5.485,4.387,5.485h61.688c3.093,0,6.168-2.472,6.832-5.494l5.609-25.619l5.609-25.601V73.71
		c0.66-3.022-1.329-5.494-4.426-5.494L582.911,68.214z"/>
	<path fill="#131B28" d="M569.59,153.437v-0.007l-17.954,83.06L569.59,153.437z"/>
	<path fill="#131B28" d="M391.768,428.638c0,0,30.857,0.399,50.472,0.399c-14.901,0-39.51-0.274-50.497-0.407
		c0.011,0,0.018,0.007,0.029,0.007L391.768,428.638z"/>
	<path fill="#131B28" d="M496.596,153.426l-8.667,38.381L496.596,153.426z"/>
	<path fill="#131B28" d="M565.162,147.934h-61.695c-3.093,0-6.185,2.472-6.868,5.494l-8.667,38.381l-8.658,38.381
		c-0.682,3.022-1.772,7.976-2.415,11.006l-8.326,39.176l-8.321,39.176c-0.647,3.022-1.976,7.905-2.969,10.838
		c0,0-11.524,34.295-30.901,33.905c-0.824-0.018-1.626-0.025-2.419-0.045c-9.389-0.177-16.766-0.31-16.766-0.31h-0.015
		c-3.088-0.045-6.195,2.366-6.917,5.37l-6.398,26.895l-6.389,26.886c-0.718,3.004,1.223,5.485,4.298,5.539
		c10.989,0.133,35.597,0.407,50.497,0.407c48.399,0,73.913-26.816,90.268-103.982l19.141-88.562l17.954-83.06
		c0.651-3.022-1.347-5.494-4.44-5.494L565.162,147.934z"/>
	<path fill="#131B28" d="M1441.567,324.954c-3.093,0-5.1-2.481-4.449-5.512l46.41-217.386"/>
	<path fill="#131B28" d="M1506.068,319.433l18.769-92.784L1506.068,319.433z"/>
	<path fill="#131B28" d="M1437.792,322.199c-0.377-1.515-0.155-5.228,0.501-8.259l22.026-103.187l-23.204,108.69
		c-0.651,3.031,1.356,5.512,4.449,5.512h5.636C1444.102,324.954,1438.164,323.714,1437.792,322.199L1437.792,322.199z"/>
	<path fill="#131B28" d="M1502.402,323.712c-1.684,0.682-5.601,1.241-8.698,1.241h5.636c3.093,0,6.132-2.481,6.744-5.521
		l1.117-5.512C1506.584,316.951,1504.09,323.03,1502.402,323.712L1502.402,323.712z"/>
	<path fill="#131B28" d="M1515.469,273.041l8.286-40.951c-0.004,0.025-0.007,0.062-0.015,0.08L1515.469,273.041L1515.469,273.041z"
		/>
	<path fill="#131B28" d="M1698.59,116.616l2.557,10.563c0.705,3.022-1.25,5.477-4.338,5.485"/>
	<path fill="#131B28" d="M1507.193,313.923l8.264-40.878L1507.193,313.923z"/>
	<path fill="#131B28" d="M1696.049,105.796l2.53,10.82L1696.049,105.796z"/>
	<path fill="#131B28" d="M1523.744,232.094c0.616-3.031,1.635-7.94,2.278-10.944l8.848-41.455l-10.023,46.958L1523.744,232.094
		L1523.744,232.094z"/>
	<path fill="#131B28" d="M1484.289,98.493c-0.616,2.924-1.405,6.62-1.927,9.066l-22.026,103.194l23.204-108.697L1484.289,98.493
		L1484.289,98.493z"/>
	<path fill="#131B28" d="M1701.131,127.179l-2.557-10.563l-2.53-10.82l-1.281-5.477c-5.011-19.469-19.722-30.706-51.662-30.706
		l-49.728-0.053l-45.797-0.053h-3.93h-47.601c-3.093,0-6.155,2.472-6.792,5.503h-0.004l-2.277,10.767l-2.69,12.716l-0.749,3.562
		l-23.204,108.697l-22.026,103.187c-0.656,3.031-0.877,6.744-0.5,8.259c0.372,1.515,6.31,2.756,9.406,2.756h46.49
		c3.097,0,7.014-0.558,8.698-1.241c1.688-0.682,4.183-6.762,4.798-9.792l8.264-40.878l8.272-40.871
		c0.004-0.018,0.007-0.053,0.015-0.08l1.103-5.441l10.022-46.958l8.853-41.474c0.656-3.013,3.704-5.477,6.792-5.485l146.279-0.071
		c3.088-0.007,5.042-2.464,4.338-5.485L1701.131,127.179z"/>
	<path fill="#131B28" d="M1889.443,31.667c-3.097,0.022-8.161,0.041-11.259,0.041h-46.82c-3.097,0-7.063,2.091-8.809,4.648
		l-103.532,151.677c-1.75,2.561-3.744,2.18-4.431-0.833l-7.617-33.417c-0.687-3.022-3.788-5.485-6.881-5.485h-66.559
		c-3.097,0-4.931,2.428-4.085,5.406l29.824,104.479c0.851,2.978,0.913,7.869,0.146,10.865l-13,50.566
		c-0.771,3.004,1.134,5.459,4.232,5.459h65.782c3.093,0,6.256-2.455,7.023-5.459l13.005-50.566c0.767-2.995,2.92-7.479,4.786-9.952
		l168.079-223.081c1.865-2.472,0.855-4.484-2.238-4.462l-17.643,0.115L1889.443,31.667z"/>
	<path fill="#131B28" d="M1360.659,162.518l-0.004-0.062c-0.39,3.359-3.487,5.822-6.58,5.822h-84.385c-2.916,0-4.4-1.985-3.97-4.431
		c0.025-0.071,0.036-0.133,0.08-0.195c0,0-0.029,0.007-0.053,0.025c0.018-0.098,0.018-0.186,0.045-0.283c0,0,0.16-0.594,0.386-1.436
		c8.06-21.428,24.476-35.491,55.328-35.491c34.733,0,41.514,16.97,39.154,36.049L1360.659,162.518z M1335.904,65.117
		c-108.316,0-133.982,65.746-148.381,132.101c-14.4,67.633-13.16,130.871,98.922,130.871h3.979c0.354-0.007,0.718-0.007,1.072-0.007
		h3.137h1.152h2.942c0.434-0.007,0.868-0.007,1.312-0.007c1.117,0,2.246-0.007,3.376-0.007h0.793
		c4.435-0.007,8.937-0.029,13.448-0.045h0.226c29.602-0.115,59.288-0.336,71.314-0.434c3.075-0.045,6.083-2.526,6.717-5.53
		l4.537-22.181l0.882-4.316l5.415-26.452c0.62-3.031-1.405-5.512-4.502-5.512h-100.766c-40.076,0-51.978-10.652-47.593-41.96
		h161.078l-0.015,0.018c0.041,0,0.076-0.018,0.111-0.018c2.561-0.045,4.927-1.808,5.866-4.156c0.177-0.452,0.328-0.922,0.39-1.409
		l-0.018,0.018c23.918-90.214,17.059-150.969-85.401-150.969L1335.904,65.117z"/>
	<path fill="#131B28" d="M823.964,162.173l-1.524,5.397c0,0.018-0.004,0.018-0.004,0.018l-12.163,43.103l-12.158,43.096
		c-0.842,2.978-4.059,5.414-7.16,5.414h-64.377c-48.831,0-60.722-38.192-48.831-94.526c11.888-57.619,35.199-93.437,83.259-97.063
		c65.677-4.954,78.817,41.241,62.958,94.562V162.173z M868.112,255.887c0,0,30.351-73.695,37.245-116.265
		C914.758,82.638,886.228,0,776.029,0c-109.571,0-157.15,78.9-175.306,164.671c-18.153,86.392,5.632,162.159,114.581,161.539
		l85.949-0.319l80.33-0.293c3.093-0.025,6.256-2.481,7.045-5.468l13.993-53.376c0.78-2.995-1.112-5.459-4.205-5.477l-13.412-0.08
		l-13.408-0.08c-2.632-0.018-4.138-1.719-3.819-3.979c0.058-0.407,0.151-0.824,0.328-1.258L868.112,255.887z"/>
	<path fill="#131B28" d="M1410.532,206.562c0,2.038-1.653,3.695-3.695,3.695c-2.038,0-3.695-1.657-3.695-3.695
		s1.657-3.686,3.695-3.686C1408.88,202.875,1410.532,204.524,1410.532,206.562z"/>
	<path fill="#0868AC" d="M31.437,110.74C1.183,154.224,4.949,210.798,28.06,257.001c0.549,1.108,1.125,2.198,1.693,3.288
		c0.363,0.691,0.705,1.4,1.081,2.082c0.213,0.407,0.452,0.806,0.674,1.196c0.394,0.735,0.798,1.436,1.205,2.153
		c0.718,1.267,1.453,2.526,2.207,3.784c0.417,0.691,0.829,1.382,1.258,2.074c0.833,1.347,1.688,2.676,2.561,4.005
		c0.363,0.567,0.718,1.134,1.09,1.684c1.205,1.799,2.437,3.589,3.709,5.352c0.032,0.045,0.066,0.098,0.106,0.142
		c0.2,0.283,0.421,0.558,0.625,0.842c1.099,1.515,2.233,3.013,3.381,4.493c0.421,0.541,0.846,1.081,1.272,1.622
		c1.024,1.285,2.065,2.561,3.124,3.837c0.394,0.479,0.793,0.957,1.192,1.427c1.422,1.675,2.871,3.341,4.351,4.971
		c0.027,0.025,0.062,0.062,0.088,0.089c0.062,0.071,0.115,0.115,0.168,0.186c1.444,1.577,2.924,3.119,4.422,4.661
		c0.465,0.479,0.939,0.957,1.418,1.427c1.161,1.17,2.339,2.322,3.531,3.465c0.483,0.461,0.961,0.93,1.444,1.374
		c1.591,1.498,3.199,2.969,4.838,4.404c0.027,0.025,0.049,0.045,0.075,0.062c0.279,0.248,0.567,0.479,0.842,0.718
		c1.444,1.25,2.915,2.49,4.395,3.713c0.603,0.487,1.214,0.966,1.821,1.453c1.21,0.966,2.433,1.923,3.664,2.862
		c0.651,0.496,1.303,0.992,1.958,1.489c1.36,1.001,2.729,1.985,4.112,2.951c0.505,0.363,0.993,0.718,1.498,1.063
		c0.142,0.098,0.27,0.195,0.412,0.293c1.312,0.904,2.654,1.772,3.992,2.641c0.576,0.381,1.148,0.78,1.728,1.152
		c2.056,1.303,4.143,2.588,6.252,3.828c0.572,0.328,1.152,0.647,1.728,0.975c1.551,0.895,3.11,1.772,4.692,2.632
		c0.855,0.461,1.732,0.895,2.597,1.338c1.117,0.585,2.224,1.179,3.359,1.746c0.257,0.125,0.523,0.248,0.775,0.372
		c0.456,0.221,0.917,0.434,1.374,0.665c1.759,0.842,3.531,1.666,5.322,2.464c0.381,0.168,0.749,0.337,1.125,0.505
		c2.051,0.895,4.12,1.755,6.208,2.579c0.501,0.204,1.006,0.399,1.511,0.594c1.932,0.744,3.89,1.48,5.858,2.171
		c0.248,0.089,0.487,0.168,0.736,0.257c2.158,0.753,4.338,1.453,6.531,2.136c0.523,0.151,1.05,0.319,1.577,0.47
		c2.233,0.674,4.44,1.48,6.744,1.905C300.699,385.274,343.2,270.664,343.2,270.664c-35.695,46.505-99.056,58.769-159.089,45.114
		c-2.273-0.514-4.479-1.223-6.699-1.879c-0.563-0.168-1.117-0.336-1.67-0.505c-2.167-0.665-4.316-1.365-6.451-2.1
		c-0.293-0.106-0.589-0.213-0.886-0.319c-1.914-0.674-3.806-1.382-5.689-2.109c-0.532-0.213-1.063-0.417-1.595-0.629
		c-2.065-0.815-4.116-1.666-6.141-2.552c-0.417-0.177-0.815-0.363-1.227-0.541c-1.741-0.789-3.465-1.586-5.18-2.41
		c-0.496-0.239-0.993-0.47-1.498-0.718c-1.347-0.657-2.679-1.358-4.007-2.04c-0.889-0.468-1.793-0.911-2.675-1.401
		c-1.622-0.867-3.216-1.771-4.802-2.693c-0.537-0.301-1.082-0.592-1.622-0.904c-2.109-1.241-4.192-2.526-6.254-3.829
		c-0.57-0.363-1.125-0.751-1.688-1.125c-1.495-0.966-2.984-1.949-4.45-2.958c-0.486-0.33-0.955-0.682-1.434-1.009
		c-1.416-1.002-2.817-2.015-4.207-3.042c-0.632-0.468-1.252-0.94-1.866-1.408c-1.274-0.976-2.541-1.96-3.797-2.969
		c-0.567-0.452-1.134-0.904-1.693-1.356c-1.595-1.312-3.172-2.632-4.728-3.988c-0.164-0.142-0.341-0.284-0.518-0.434
		c-1.684-1.48-3.336-2.995-4.971-4.519c-0.474-0.452-0.935-0.895-1.4-1.347c-1.21-1.152-2.401-2.313-3.571-3.5
		c-0.47-0.47-0.939-0.93-1.4-1.4c-1.489-1.524-2.951-3.066-4.382-4.635c-0.071-0.08-0.146-0.151-0.217-0.23
		c-1.515-1.657-2.995-3.35-4.444-5.06c-0.394-0.47-0.775-0.922-1.165-1.382c-1.081-1.303-2.153-2.623-3.199-3.952
		c-0.392-0.479-0.784-0.969-1.172-1.463c-1.26-1.633-2.49-3.263-3.695-4.918C40.385,194.988,28.412,132.284,55.05,80.789"/>
	<path fill="#0868AC" d="M125.351,74.105c-21.879,31.486-20.692,73.633-3.624,106.933c2.862,5.583,6.079,10.997,9.677,16.155
		c3.279,4.697,6.912,10.289,11.263,14.063c1.577,1.737,3.226,3.429,4.909,5.095c0.425,0.434,0.86,0.851,1.294,1.276
		c1.635,1.586,3.297,3.146,5.016,4.661c0.071,0.053,0.133,0.124,0.204,0.177c0.018,0.018,0.036,0.025,0.049,0.045
		c1.901,1.666,3.864,3.27,5.858,4.847c0.443,0.336,0.882,0.691,1.329,1.037c1.998,1.533,4.037,3.04,6.128,4.475
		c0.062,0.045,0.115,0.089,0.177,0.133c0.922,0.638,1.861,1.232,2.796,1.843c0.447,0.293,0.873,0.603,1.325,0.877
		c1.493,0.957,3.004,1.888,4.542,2.783c0.217,0.133,0.43,0.248,0.642,0.372c1.325,0.762,2.667,1.515,4.015,2.242
		c0.47,0.266,0.948,0.496,1.427,0.744c0.93,0.487,1.861,0.984,2.809,1.453c0.142,0.071,0.288,0.133,0.425,0.195
		c1.927,0.948,3.873,1.861,5.858,2.729c0.425,0.186,0.864,0.354,1.294,0.532c1.586,0.674,3.19,1.329,4.803,1.95
		c0.682,0.257,1.374,0.505,2.056,0.753c1.462,0.541,2.929,1.037,4.409,1.533c0.669,0.213,1.325,0.434,1.994,0.638
		c2.105,0.656,4.183,1.48,6.376,1.843c112.969,18.716,139.049-68.261,139.049-68.261c-23.51,33.861-69.038,50.014-117.622,37.405
		c-2.158-0.567-4.285-1.187-6.398-1.852c-0.647-0.195-1.281-0.407-1.923-0.62c-1.502-0.487-2.995-1.001-4.475-1.542
		c-0.678-0.248-1.356-0.496-2.02-0.753c-1.622-0.62-3.226-1.267-4.816-1.941c-0.434-0.186-0.873-0.354-1.298-0.549
		c-1.994-0.868-3.957-1.781-5.893-2.738c-0.997-0.487-1.976-1.001-2.955-1.506c-0.567-0.292-1.139-0.585-1.706-0.877
		c-1.258-0.682-2.508-1.391-3.74-2.109c-0.292-0.168-0.598-0.328-0.895-0.505c-1.529-0.895-3.035-1.817-4.528-2.765
		c-0.461-0.293-0.904-0.611-1.365-0.913c-0.984-0.638-1.967-1.285-2.933-1.941c-2.083-1.436-4.107-2.942-6.106-4.466
		c-0.461-0.363-0.922-0.718-1.374-1.081c-21.267-16.791-38.123-39.735-46.138-65.753c-8.399-26.984-6.588-57.274,7.964-81.855"/>
	<path fill="#0868AC" d="M204.338,46.733c-12.898,18.982-14.165,42.555-5.215,63.521c9.438,22.252,28.779,39.71,51.35,47.985
		c0.93,0.346,1.861,0.656,2.805,0.975c0.412,0.124,0.82,0.266,1.236,0.39c1.329,0.417,2.65,0.904,4.023,1.161
		c62.377,12.052,79.296-32.009,83.8-38.494c-14.821,21.339-39.728,26.461-70.287,19.044c-2.414-0.588-5.067-1.459-7.394-2.283
		c-2.984-1.064-5.924-2.276-8.78-3.648c-5.426-2.606-10.599-5.771-15.394-9.394c-27.347-20.748-44.334-60.33-26.49-92.566"/>
</g>
</svg>
