<?xml version="1.0" encoding="UTF-8" standalone="no"?>
<!-- Generated by IcoMoon.io -->

<svg
   xmlns:dc="http://purl.org/dc/elements/1.1/"
   xmlns:cc="http://creativecommons.org/ns#"
   xmlns:rdf="http://www.w3.org/1999/02/22-rdf-syntax-ns#"
   xmlns:svg="http://www.w3.org/2000/svg"
   xmlns="http://www.w3.org/2000/svg"
   xmlns:sodipodi="http://sodipodi.sourceforge.net/DTD/sodipodi-0.dtd"
   xmlns:inkscape="http://www.inkscape.org/namespaces/inkscape"
   version="1.1"
   width="64"
   height="64"
   viewBox="0 0 64 64"
   id="svg2"
   inkscape:version="0.48.5 r10040"
   sodipodi:docname="link.svg">
  <metadata
     id="metadata12">
    <rdf:RDF>
      <cc:Work
         rdf:about="">
        <dc:format>image/svg+xml</dc:format>
        <dc:type
           rdf:resource="http://purl.org/dc/dcmitype/StillImage" />
        <dc:title></dc:title>
      </cc:Work>
    </rdf:RDF>
  </metadata>
  <defs
     id="defs10" />
  <sodipodi:namedview
     pagecolor="#ffffff"
     bordercolor="#666666"
     borderopacity="1"
     objecttolerance="10"
     gridtolerance="10"
     guidetolerance="10"
     inkscape:pageopacity="0"
     inkscape:pageshadow="2"
     inkscape:window-width="1920"
     inkscape:window-height="1017"
     id="namedview8"
     showgrid="false"
     inkscape:zoom="29.5"
     inkscape:cx="52.006612"
     inkscape:cy="45.658278"
     inkscape:window-x="-8"
     inkscape:window-y="-8"
     inkscape:window-maximized="1"
     inkscape:current-layer="svg2" />
  <path
     d="M27.515 39.735c-0.832 0-1.663-0.317-2.298-0.952-5.946-5.946-5.946-15.621 0-21.567l12-12c2.88-2.88 6.71-4.467 10.783-4.467s7.903 1.586 10.784 4.466c5.946 5.946 5.946 15.621 0 21.567l-5.485 5.485c-1.269 1.269-3.327 1.269-4.596 0s-1.269-3.327 0-4.596l5.485-5.485c3.412-3.412 3.412-8.963 0-12.374-1.653-1.653-3.85-2.563-6.187-2.563s-4.535 0.91-6.187 2.563l-12 12c-3.412 3.412-3.412 8.963 0 12.374 1.269 1.269 1.269 3.327 0 4.596-0.634 0.635-1.466 0.952-2.298 0.952z"
     fill="#000000"
     id="path4" />
  <path
     d="M16 63.25c-4.073 0-7.903-1.586-10.783-4.466-5.946-5.946-5.946-15.621 0-21.567l5.485-5.485c1.269-1.269 3.327-1.269 4.596 0s1.269 3.327 0 4.596l-5.485 5.485c-3.412 3.412-3.412 8.963 0 12.374 1.652 1.653 3.85 2.563 6.187 2.563s4.535-0.91 6.187-2.563l12-12c3.412-3.412 3.412-8.963 0-12.374-1.269-1.269-1.269-3.327 0-4.596s3.327-1.269 4.596 0c5.946 5.946 5.946 15.621 0 21.567l-12 12c-2.881 2.88-6.71 4.467-10.784 4.467z"
     fill="#000000"
     id="path6" />
  <path
     style="fill:#ffffff"
     d="M 13.036478,62.765288 C 5.950099,61.228504 0.98690563,55.146715 0.98690563,48 c 0,-2.591518 0.51195077,-4.647528 1.78590807,-7.172263 C 3.8201689,38.752083 10.698897,31.638219 12.108386,31.173045 14.080875,30.522065 16,31.993043 16,34.155905 c 0,1.075118 -0.156932,1.284712 -3.678715,4.913177 -4.4201918,4.554088 -5.1010268,5.747029 -5.0958483,8.928815 0.00577,3.548153 1.7400819,6.359497 4.8753063,7.902963 1.538219,0.757263 2.065208,0.877017 3.859417,0.877017 3.627157,0 4.266198,-0.430867 11.934742,-8.046878 3.633719,-3.608829 7.002267,-7.171677 7.485659,-7.91744 2.256445,-3.481179 1.904315,-7.177483 -1.081518,-11.352681 -0.518712,-0.725331 -0.943111,-1.561126 -0.943111,-1.857321 0,-1.033608 0.843357,-2.33556 1.810031,-2.794277 1.331054,-0.631626 2.569378,-0.342036 3.754208,0.877944 4.77271,4.914301 5.488664,12.822642 1.678804,18.543838 -0.536147,0.805119 -4.3087,4.781518 -8.383455,8.836442 -6.845575,6.812257 -7.563563,7.446158 -9.446982,8.340588 -2.170216,1.030633 -5.122186,1.779762 -6.904131,1.752082 -0.59661,-0.0093 -1.869178,-0.186967 -2.827929,-0.394886 l 0,0 z"
     id="path2989"
     inkscape:connector-curvature="0" />
  <path
     style="fill:#ffffff"
     d="M 26.114268,39.118644 C 25.188342,38.607878 23.419869,36.507897 22.651438,35.00669 20.430402,30.667675 20.392371,25.687274 22.5461,21.211869 23.319878,19.603975 24.349276,18.459192 31.304686,11.471536 38.684283,4.0577266 39.316519,3.4917812 41.228119,2.5885734 43.31591,1.6021179 46.304277,0.82297687 48,0.82297687 c 0.522034,0 1.799889,0.18020893 2.839677,0.40046433 6.111029,1.2944807 10.6424,5.8258534 11.936882,11.9368808 0.50192,2.369481 0.50192,3.309875 0,5.679356 -0.788573,3.722721 -1.891119,5.48126 -6.140871,9.794559 -4.168211,4.230541 -4.948426,4.724982 -6.597226,4.180827 C 48.782633,32.400605 48,31.259951 48,29.844095 c 0,-1.075119 0.156933,-1.284711 3.678715,-4.913177 4.420192,-4.554088 5.101027,-5.747029 5.095848,-8.928815 C 56.768786,12.45395 55.034481,9.642605 51.899257,8.0991395 50.361039,7.3418763 49.83405,7.2221231 48.03984,7.2221231 c -3.651818,0 -4.240074,0.4014557 -12.188262,8.3178839 -8.092596,8.06026 -8.597495,8.795667 -8.597125,12.522087 2.37e-4,2.39063 0.533167,3.80154 2.446505,6.477027 0.518711,0.725332 0.94311,1.561126 0.94311,1.857324 0,1.006245 -0.843417,2.335585 -1.756855,2.769041 -1.155431,0.548288 -1.711099,0.538902 -2.772945,-0.04684 z"
     id="path2991"
     inkscape:connector-curvature="0" />
  <path
     style="fill:#ffffff"
     d="m 37.097307,48.121458 c 0.103409,-0.111057 0.517654,-0.550601 0.920544,-0.976766 0.909219,-0.961741 1.440911,-1.53965 1.914756,-2.081194 0.456114,-0.521279 0.619227,-0.730417 0.834792,-1.070341 2.014264,-3.176288 2.729227,-7.045354 2.005816,-10.854595 -0.54094,-2.84841 -1.936844,-5.538657 -3.880697,-7.479049 -0.466127,-0.465297 -0.723748,-0.660757 -1.15177,-0.873857 -0.326326,-0.16247 -0.610717,-0.251337 -0.930533,-0.290776 -0.647829,-0.07989 -1.430245,0.119798 -1.998866,0.510146 -0.213121,0.146304 -0.565319,0.486898 -0.739104,0.714752 -0.506537,0.664135 -0.819027,1.581029 -0.698766,2.050288 0.09815,0.382976 0.434048,0.99353 1.022515,1.858591 0.424429,0.623923 0.758061,1.154325 1.006137,1.599541 0.162024,0.290781 0.1881,0.390766 0.03728,0.14296 -0.264039,-0.43384 -0.638006,-0.918936 -1.057625,-1.37191 -0.569981,-0.615289 -0.744284,-0.871589 -0.932115,-1.370611 -0.331281,-0.880133 -0.239909,-1.91354 0.242511,-2.742764 0.318022,-0.546644 0.881652,-1.0587 1.439334,-1.307632 1.072284,-0.478635 2.288535,-0.365945 3.220456,0.298386 0.502494,0.358209 1.452604,1.425804 2.126687,2.389662 1.420207,2.030726 2.323439,4.379812 2.631175,6.843046 0.147168,1.17799 0.147168,2.609227 0,3.787216 -0.336657,2.694727 -1.385038,5.244203 -3.040791,7.39466 -0.44598,0.57923 -0.789772,0.955558 -1.822959,1.995479 l -1.029978,1.03669 -0.15341,0 -0.15341,0 0.188017,-0.201922 z"
     id="path2993"
     inkscape:connector-curvature="0" />
  <path
     style="fill:#ffffff"
     d="m 27.062237,39.690566 c -0.666394,-0.11115 -1.255405,-0.387993 -1.70185,-0.799891 -0.377705,-0.348478 -1.009794,-1.053793 -1.417478,-1.581691 -1.656228,-2.144598 -2.715466,-4.718597 -3.052747,-7.418319 -0.147168,-1.17799 -0.147168,-2.609227 0,-3.787216 0.181011,-1.44888 0.572442,-2.870438 1.165566,-4.232982 l 0.171152,-0.393175 0.09323,0 0.09323,0 -0.03444,0.06659 c -0.178841,0.34584 -0.566049,1.37098 -0.757038,2.004274 -0.430533,1.427584 -0.632666,2.705629 -0.663824,4.197218 -0.04847,2.320316 0.416127,4.534923 1.405476,6.699538 0.422725,0.924888 0.952959,1.759461 1.736085,2.732548 0.547044,0.679739 1.263802,1.418679 1.680374,1.732376 0.359995,0.271094 0.94722,0.546656 1.335178,0.626549 0.48462,0.0998 1.021258,-0.0045 1.708853,-0.332088 0.620479,-0.295623 1.122815,-0.820772 1.494181,-1.562036 0.19622,-0.391663 0.339503,-0.895568 0.339503,-1.193981 0,-0.381843 -0.343468,-1.038267 -1.190685,-2.275598 -0.290147,-0.423749 -0.59918,-0.885536 -0.68674,-1.026192 -0.730202,-1.172995 -1.132452,-2.110054 -1.33526,-3.110541 -0.03891,-0.191965 -0.06991,-0.375993 -0.06887,-0.408951 0.001,-0.03296 0.02866,0.06353 0.06139,0.214421 0.28919,1.333099 0.884907,2.58904 1.723067,3.632719 0.09529,0.11865 0.327108,0.382916 0.51516,0.587258 0.188053,0.204342 0.382483,0.426391 0.432068,0.493443 0.50985,0.689449 0.729286,1.54157 0.610559,2.370939 -0.231403,1.61646 -1.610554,2.805082 -3.236675,2.789528 -0.158201,-0.0015 -0.346962,-0.01265 -0.419471,-0.02474 l 0,0 z"
     id="path2995"
     inkscape:connector-curvature="0" />
  <path
     style="fill:#ffffff"
     d="m 50.59322,33.172419 c -0.685108,-0.08478 -1.361185,-0.420025 -1.866864,-0.925703 -1.098178,-1.098178 -1.265192,-2.788016 -0.40228,-4.070254 0.142552,-0.211824 0.743741,-0.831416 2.746434,-2.830509 1.410163,-1.407627 2.558471,-2.541054 2.551796,-2.518727 -0.01442,0.04823 -0.522487,0.58698 -2.503144,2.654321 -2.169424,2.264367 -2.638802,2.796849 -2.892454,3.281316 -0.207337,0.396009 -0.236641,0.553713 -0.217932,1.172838 0.01957,0.647622 0.08343,0.93257 0.313916,1.400807 0.422433,0.858171 1.11918,1.383741 2.132922,1.608906 0.369158,0.08199 0.83274,0.06805 1.161569,-0.03494 0.9158,-0.286828 2.023702,-1.222842 4.904814,-4.14385 2.501378,-2.536015 3.578595,-3.79626 4.539516,-5.310814 0.316448,-0.498769 0.797387,-1.480947 1.022564,-2.088288 0.44618,-1.203427 0.895184,-3.14709 1.037153,-4.489662 0.03959,-0.374388 0.02396,-1.721755 -0.02338,-2.01496 -0.01585,-0.09817 -0.0093,-0.127119 0.02892,-0.127119 0.06287,0 0.09314,0.412685 0.09339,1.272885 6.01e-4,2.097548 -0.425082,4.131821 -1.280003,6.116945 -0.555204,1.289182 -1.41113,2.651073 -2.375453,3.779661 -0.373859,0.437543 -6.25184,6.336674 -6.565848,6.589472 -0.449477,0.361862 -1.03496,0.606065 -1.625979,0.678191 -0.34161,0.04169 -0.439122,0.04162 -0.779661,-5.19e-4 l 0,0 z"
     id="path2997"
     inkscape:connector-curvature="0" />
  <path
     style="fill:#ffffff"
     d="M 1.9467268,53.878363 C 1.643716,53.183814 1.3114004,52.11949 1.1178621,51.223717 0.8776227,50.111791 0.78269372,49.199067 0.78255345,47.999789 0.78241413,46.808635 0.87871275,45.882742 1.1178621,44.775862 1.6549924,42.289804 2.7692418,40.045476 4.4440048,38.076324 4.8718596,37.573262 10.776495,31.663719 11.07727,31.437546 c 0.368639,-0.277204 0.817343,-0.478851 1.291528,-0.58041 0.287512,-0.06158 0.983614,-0.06153 1.269583,8.9e-5 1.283824,0.276631 2.257189,1.250095 2.533897,2.534155 0.06155,0.285634 0.06157,0.981918 2.3e-5,1.269259 -0.101623,0.474483 -0.303375,0.92327 -0.580606,1.291528 -0.127411,0.169246 -0.882409,0.938021 -2.839374,2.891188 -1.466196,1.463352 -2.661953,2.648157 -2.657237,2.6329 0.02007,-0.06493 1.352385,-1.482434 2.8126,-2.992445 2.398189,-2.479971 2.875876,-3.060032 3.049731,-3.703322 0.05766,-0.21336 0.05657,-0.922012 -0.0019,-1.240636 -0.228919,-1.247209 -1.099842,-2.188284 -2.280357,-2.464039 -0.226345,-0.05287 -0.768539,-0.07236 -1.021439,-0.03671 -0.576735,0.0813 -0.871289,0.229474 -1.579276,0.79445 -2.3054136,1.839727 -6.6032676,6.387435 -7.988973,8.453409 -0.2213871,0.33007 -0.2710178,0.420965 -0.5598188,1.025271 -0.7738119,1.619172 -1.2303282,3.098405 -1.4204624,4.60267 -0.083376,0.659634 -0.1012934,0.934568 -0.11505007,1.765347 -0.0135904,0.820737 0.0069,1.331146 0.0797051,1.985431 0.1590986,1.429787 0.521193,2.84538 1.0517261,4.111681 0.059425,0.141839 0.1080461,0.261689 0.1080461,0.266334 0,0.0046 -0.046589,0.0084 -0.103532,0.0084 l -0.103532,0 -0.075815,-0.173781 0,0 z"
     id="path2999"
     inkscape:connector-curvature="0" />
  <path
     style="fill:#ffffff"
     d="M 14.779661,63.182818 C 13.571586,63.075129 12.61712,62.891293 11.491525,62.549502 9.4953071,61.943343 7.544882,60.846907 5.9491525,59.433843 4.3937794,58.056517 3.1929538,56.475034 2.2832685,54.605889 l -0.2474671,-0.508474 0.092269,-0.01747 c 0.089618,-0.01697 0.1015861,0.001 0.4165441,0.627119 0.739194,1.469362 1.5659171,2.628978 2.6913934,3.775122 1.6778228,1.708633 3.4838262,2.873853 5.7459103,3.707217 1.419024,0.522776 3.416623,0.923723 4.814769,0.966395 1.926529,0.0588 4.969752,-0.731447 7.300362,-1.89571 1.299837,-0.649338 2.080021,-1.284575 4.801256,-3.909249 1.515186,-1.461421 6.479827,-6.415528 7.914332,-7.897539 l 1.049926,-1.084696 0.153464,-0.01 0.153465,-0.01 -5.372882,5.377281 c -2.955085,2.957505 -5.540678,5.525959 -5.745763,5.707676 -2.121736,1.879981 -4.760811,3.134431 -7.559322,3.593225 -1.117922,0.183275 -2.672571,0.248591 -3.711864,0.155947 z"
     id="path3001"
     inkscape:connector-curvature="0" />
  <path
     style="fill:#ffffff"
     d=""
     id="path3003"
     inkscape:connector-curvature="0" />
  <path
     style="fill:#ffffff"
     d="m 28.117211,48.288894 c 2.83311,-2.835139 5.158556,-5.147351 5.167658,-5.138249 0.0091,0.0091 -0.09028,0.126697 -0.220857,0.261321 -0.130574,0.134624 -0.633138,0.656336 -1.116811,1.159359 -1.554195,1.616377 -3.734611,3.819019 -5.550732,5.607315 -1.800126,1.772546 -3.320629,3.231018 -3.391283,3.25293 -0.0215,0.0067 2.278915,-2.307537 5.112025,-5.142676 z"
     id="path3005"
     inkscape:connector-curvature="0" />
  <path
     style="fill:#ffffff"
     d="m 22.483137,20.992742 c 0.536973,-1.031093 1.147489,-1.942743 1.901221,-2.838983 0.328344,-0.390426 13.085321,-13.170828 13.564795,-13.5897044 0.65592,-0.5730238 1.318021,-1.0666768 2.021072,-1.5068848 0.3288,-0.205874 0.375883,-0.2254036 0.542373,-0.2249681 l 0.182317,4.768e-4 -0.237288,0.1296281 c -0.774155,0.4229133 -1.494677,0.9964824 -2.980831,2.3728799 -0.41139,0.3810081 -2.73866,2.6859316 -5.171711,5.1220525 -5.174822,5.18135 -6.964816,7.023705 -8.103545,8.340588 -0.806927,0.93317 -1.192047,1.477562 -1.576737,2.228813 -0.198795,0.388223 -0.241066,0.449153 -0.311612,0.449153 -0.07827,0 -0.07131,-0.01979 0.169946,-0.483051 z"
     id="path3007"
     inkscape:connector-curvature="0" />
  <path
     style="fill:#ffffff"
     d="m 30.547201,21.012007 c 0.076,-0.25116 10.195035,-10.3646 10.282659,-10.276976 0.0081,0.0081 -2.304844,2.332814 -5.139983,5.165924 -2.835139,2.83311 -5.149343,5.133083 -5.142676,5.111052 z"
     id="path3009"
     inkscape:connector-curvature="0" />
  <path
     style="fill:#ffffff"
     d="m 63.075536,14.691406 c -0.0075,-0.02331 -0.03087,-0.15678 -0.05187,-0.296611 -0.09764,-0.650248 -0.313521,-1.654998 -0.49162,-2.288135 C 61.025511,6.7509761 56.950901,2.7654866 51.565934,1.3804006 50.188338,1.0260644 48.443118,0.77423081 47.684578,0.82032442 45.759662,0.93729416 42.850284,1.7488745 40.964244,2.6949833 c -0.210064,0.1053764 -0.658847,0.1768115 -0.533088,0.084855 0.112823,-0.082498 1.248024,-0.6474199 1.61459,-0.8034852 2.623047,-1.11675966 5.615475,-1.47210419 8.452391,-1.00370335 3.734957,0.61667565 7.105821,2.61722475 9.478858,5.62553605 1.712884,2.1714336 2.786349,4.7603177 3.133893,7.5580337 0.02655,0.213698 0.04827,0.431071 0.04827,0.483051 0,0.095 -0.05807,0.131203 -0.08362,0.05214 z"
     id="path3011"
     inkscape:connector-curvature="0" />
  <path
     style="fill:#ffffff"
     d="m 44.006612,8.1575952 c 0,-0.029596 0.636171,-0.3552933 0.928564,-0.4753921 0.420126,-0.1725639 0.978732,-0.3098373 1.514486,-0.372174 0.613506,-0.071383 0.790836,-0.061925 0.282429,0.015064 -0.822205,0.1245081 -1.694636,0.3804914 -2.378443,0.6978679 -0.3298,0.1530708 -0.347036,0.1597577 -0.347036,0.1346339 z"
     id="path3013"
     inkscape:connector-curvature="0" />
</svg>
