<?xml version="1.0" encoding="utf-8"?>
<!-- Generator: Adobe Illustrator 17.0.0, SVG Export Plug-In . SVG Version: 6.00 Build 0)  -->
<!DOCTYPE svg PUBLIC "-//W3C//DTD SVG 1.1//EN" "http://www.w3.org/Graphics/SVG/1.1/DTD/svg11.dtd">
<svg version="1.1"
	 id="svg2" xmlns:dc="http://purl.org/dc/elements/1.1/" xmlns:cc="http://creativecommons.org/ns#" xmlns:rdf="http://www.w3.org/1999/02/22-rdf-syntax-ns#" xmlns:svg="http://www.w3.org/2000/svg" xmlns:inkscape="http://www.inkscape.org/namespaces/inkscape" xmlns:sodipodi="http://sodipodi.sourceforge.net/DTD/sodipodi-0.dtd" inkscape:version="0.48.5 r10040" sodipodi:docname="link.svg"
	 xmlns="http://www.w3.org/2000/svg" xmlns:xlink="http://www.w3.org/1999/xlink" x="0px" y="0px" width="120px" height="120px"
	 viewBox="-28 -28 120 120" enable-background="new -28 -28 120 120" xml:space="preserve">
<circle fill="none" stroke="#FFFFFF" stroke-width="5" stroke-miterlimit="10" cx="32" cy="32" r="54.333"/>
<sodipodi:namedview  gridtolerance="10" pagecolor="#ffffff" objecttolerance="10" showgrid="false" inkscape:zoom="29.5" bordercolor="#666666" inkscape:cy="45.658278" id="namedview8" borderopacity="1" inkscape:cx="52.006612" guidetolerance="10" inkscape:pageopacity="0" inkscape:pageshadow="2" inkscape:window-maximized="1" inkscape:window-width="1920" inkscape:current-layer="svg2" inkscape:window-height="1017" inkscape:window-x="-8" inkscape:window-y="-8">
	</sodipodi:namedview>
<path id="path4" d="M27.515,39.735c-0.832,0-1.663-0.317-2.298-0.952c-5.946-5.946-5.946-15.621,0-21.567l12-12
	c2.88-2.88,6.71-4.467,10.783-4.467s7.903,1.586,10.784,4.466c5.946,5.946,5.946,15.621,0,21.567l-5.485,5.485
	c-1.269,1.269-3.327,1.269-4.596,0s-1.269-3.327,0-4.596l5.485-5.485c3.412-3.412,3.412-8.963,0-12.374
	c-1.653-1.653-3.85-2.563-6.187-2.563s-4.535,0.91-6.187,2.563l-12,12c-3.412,3.412-3.412,8.963,0,12.374
	c1.269,1.269,1.269,3.327,0,4.596C29.18,39.417,28.348,39.734,27.515,39.735L27.515,39.735z"/>
<path id="path6" d="M16,63.25c-4.073,0-7.903-1.586-10.783-4.466c-5.946-5.946-5.946-15.621,0-21.567l5.485-5.485
	c1.269-1.269,3.327-1.269,4.596,0s1.269,3.327,0,4.596l-5.485,5.485c-3.412,3.412-3.412,8.963,0,12.374
	c1.652,1.653,3.85,2.563,6.187,2.563s4.535-0.91,6.187-2.563l12-12c3.412-3.412,3.412-8.963,0-12.374
	c-1.269-1.269-1.269-3.327,0-4.596s3.327-1.269,4.596,0c5.946,5.946,5.946,15.621,0,21.567l-12,12
	c-2.881,2.88-6.71,4.467-10.784,4.467L16,63.25z"/>
<path id="path2989" inkscape:connector-curvature="0" fill="#FFFFFF" d="M13.036,62.765C5.95,61.229,0.987,55.147,0.987,48
	c0-2.592,0.512-4.648,1.786-7.172c1.047-2.076,7.926-9.19,9.336-9.655C14.081,30.522,16,31.993,16,34.156
	c0,1.075-0.157,1.285-3.679,4.913c-4.42,4.554-5.101,5.747-5.096,8.929c0.006,3.548,1.74,6.359,4.875,7.903
	c1.538,0.757,2.065,0.877,3.859,0.877c3.627,0,4.266-0.431,11.935-8.047c3.634-3.609,7.002-7.172,7.486-7.917
	c2.256-3.481,1.904-7.177-1.082-11.353c-0.519-0.725-0.943-1.561-0.943-1.857c0-1.034,0.843-2.336,1.81-2.794
	c1.331-0.632,2.569-0.342,3.754,0.878c4.773,4.914,5.489,12.823,1.679,18.544c-0.536,0.805-4.309,4.782-8.383,8.836
	c-6.846,6.812-7.564,7.446-9.447,8.341c-2.17,1.031-5.122,1.78-6.904,1.752C15.268,63.151,13.995,62.973,13.036,62.765
	C13.036,62.765,13.036,62.765,13.036,62.765z"/>
<path id="path2991" inkscape:connector-curvature="0" fill="#FFFFFF" d="M26.114,39.119c-0.926-0.511-2.694-2.611-3.463-4.112
	c-2.221-4.339-2.259-9.319-0.105-13.795c0.774-1.608,1.803-2.753,8.759-9.74c7.38-7.414,8.012-7.98,9.923-8.883
	C43.316,1.602,46.304,0.823,48,0.823c0.522,0,1.8,0.18,2.84,0.4c6.111,1.294,10.642,5.826,11.937,11.937
	c0.502,2.369,0.502,3.31,0,5.679c-0.789,3.723-1.891,5.481-6.141,9.795c-4.168,4.231-4.948,4.725-6.597,4.181
	C48.783,32.401,48,31.26,48,29.844c0-1.075,0.157-1.285,3.679-4.913c4.42-4.554,5.101-5.747,5.096-8.929
	c-0.006-3.548-1.74-6.359-4.875-7.903c-1.538-0.757-2.065-0.877-3.859-0.877c-3.652,0-4.24,0.401-12.188,8.318
	c-8.093,8.06-8.597,8.796-8.597,12.522c0,2.391,0.533,3.802,2.447,6.477c0.519,0.725,0.943,1.561,0.943,1.857
	c0,1.006-0.843,2.336-1.757,2.769C27.732,39.714,27.176,39.704,26.114,39.119z"/>
<path id="path2993" inkscape:connector-curvature="0" fill="#FFFFFF" d="M37.097,48.121c0.103-0.111,0.518-0.551,0.921-0.977
	c0.909-0.962,1.441-1.54,1.915-2.081c0.456-0.521,0.619-0.73,0.835-1.07c2.014-3.176,2.729-7.045,2.006-10.855
	c-0.541-2.848-1.937-5.539-3.881-7.479c-0.466-0.465-0.724-0.661-1.152-0.874c-0.326-0.162-0.611-0.251-0.931-0.291
	c-0.648-0.08-1.43,0.12-1.999,0.51c-0.213,0.146-0.565,0.487-0.739,0.715c-0.507,0.664-0.819,1.581-0.699,2.05
	c0.098,0.383,0.434,0.994,1.023,1.859c0.424,0.624,0.758,1.154,1.006,1.6c0.162,0.291,0.188,0.391,0.037,0.143
	c-0.264-0.434-0.638-0.919-1.058-1.372c-0.57-0.615-0.744-0.872-0.932-1.371c-0.331-0.88-0.24-1.914,0.243-2.743
	c0.318-0.547,0.882-1.059,1.439-1.308c1.072-0.479,2.289-0.366,3.22,0.298c0.502,0.358,1.453,1.426,2.127,2.39
	c1.42,2.031,2.323,4.38,2.631,6.843c0.147,1.178,0.147,2.609,0,3.787c-0.337,2.695-1.385,5.244-3.041,7.395
	c-0.446,0.579-0.79,0.956-1.823,1.995l-1.03,1.037h-0.153h-0.153C36.909,48.323,37.097,48.121,37.097,48.121z"/>
<path id="path2995" inkscape:connector-curvature="0" fill="#FFFFFF" d="M27.062,39.691c-0.666-0.111-1.255-0.388-1.702-0.8
	c-0.378-0.348-1.01-1.054-1.417-1.582c-1.656-2.145-2.715-4.719-3.053-7.418c-0.147-1.178-0.147-2.609,0-3.787
	c0.181-1.449,0.572-2.87,1.166-4.233l0.171-0.393h0.093h0.093l-0.034,0.067c-0.179,0.346-0.566,1.371-0.757,2.004
	c-0.431,1.428-0.633,2.706-0.664,4.197c-0.048,2.32,0.416,4.535,1.405,6.7c0.423,0.925,0.953,1.759,1.736,2.733
	c0.547,0.68,1.264,1.419,1.68,1.732c0.36,0.271,0.947,0.547,1.335,0.627c0.485,0.1,1.021-0.005,1.709-0.332
	c0.62-0.296,1.123-0.821,1.494-1.562c0.196-0.392,0.34-0.896,0.34-1.194c0-0.382-0.343-1.038-1.191-2.276
	c-0.29-0.424-0.599-0.886-0.687-1.026c-0.73-1.173-1.132-2.11-1.335-3.111c-0.039-0.192-0.07-0.376-0.069-0.409
	c0.001-0.033,0.029,0.064,0.061,0.214c0.289,1.333,0.885,2.589,1.723,3.633c0.095,0.119,0.327,0.383,0.515,0.587
	c0.188,0.204,0.382,0.426,0.432,0.493c0.51,0.689,0.729,1.542,0.611,2.371c-0.231,1.616-1.611,2.805-3.237,2.79
	C27.323,39.714,27.135,39.703,27.062,39.691L27.062,39.691L27.062,39.691z"/>
<path id="path2997" inkscape:connector-curvature="0" fill="#FFFFFF" d="M50.593,33.172c-0.685-0.085-1.361-0.42-1.867-0.926
	c-1.098-1.098-1.265-2.788-0.402-4.07c0.143-0.212,0.744-0.831,2.746-2.831c1.41-1.408,2.558-2.541,2.552-2.519
	c-0.014,0.048-0.522,0.587-2.503,2.654c-2.169,2.264-2.639,2.797-2.892,3.281c-0.207,0.396-0.237,0.554-0.218,1.173
	c0.02,0.648,0.083,0.933,0.314,1.401c0.422,0.858,1.119,1.384,2.133,1.609c0.369,0.082,0.833,0.068,1.162-0.035
	c0.916-0.287,2.024-1.223,4.905-4.144c2.501-2.536,3.579-3.796,4.54-5.311c0.316-0.499,0.797-1.481,1.023-2.088
	c0.446-1.203,0.895-3.147,1.037-4.49c0.04-0.374,0.024-1.722-0.023-2.015c-0.016-0.098-0.009-0.127,0.029-0.127
	c0.063,0,0.093,0.413,0.093,1.273c0.001,2.098-0.425,4.132-1.28,6.117c-0.555,1.289-1.411,2.651-2.375,3.78
	c-0.374,0.438-6.252,6.337-6.566,6.589c-0.449,0.362-1.035,0.606-1.626,0.678C51.031,33.215,50.934,33.215,50.593,33.172
	C50.593,33.172,50.593,33.172,50.593,33.172z"/>
<path id="path2999" inkscape:connector-curvature="0" fill="#FFFFFF" d="M1.947,53.878c-0.303-0.695-0.635-1.759-0.829-2.655
	C0.878,50.112,0.783,49.199,0.783,48c0-1.191,0.096-2.117,0.335-3.224c0.537-2.486,1.651-4.73,3.326-6.7
	c0.428-0.503,6.332-6.413,6.633-6.639c0.369-0.277,0.817-0.479,1.292-0.58c0.288-0.062,0.984-0.062,1.27,0
	c1.284,0.277,2.257,1.25,2.534,2.534c0.062,0.286,0.062,0.982,0,1.269c-0.102,0.474-0.303,0.923-0.581,1.292
	c-0.127,0.169-0.882,0.938-2.839,2.891c-1.466,1.463-2.662,2.648-2.657,2.633c0.02-0.065,1.352-1.482,2.813-2.992
	c2.398-2.48,2.876-3.06,3.05-3.703c0.058-0.213,0.057-0.922-0.002-1.241c-0.229-1.247-1.1-2.188-2.28-2.464
	c-0.226-0.053-0.769-0.072-1.021-0.037c-0.577,0.081-0.871,0.229-1.579,0.794c-2.305,1.84-6.603,6.387-7.989,8.453
	c-0.221,0.33-0.271,0.421-0.56,1.025c-0.774,1.619-1.23,3.098-1.42,4.603c-0.083,0.66-0.101,0.935-0.115,1.765
	c-0.014,0.821,0.007,1.331,0.08,1.985c0.159,1.43,0.521,2.845,1.052,4.112c0.059,0.142,0.108,0.262,0.108,0.266
	c0,0.005-0.047,0.008-0.104,0.008H2.023L1.947,53.878L1.947,53.878L1.947,53.878z"/>
<path id="path3001" inkscape:connector-curvature="0" fill="#FFFFFF" d="M14.78,63.183c-1.208-0.108-2.163-0.292-3.288-0.633
	c-1.996-0.606-3.947-1.703-5.542-3.116c-1.555-1.377-2.756-2.959-3.666-4.828l-0.247-0.508l0.092-0.017
	c0.09-0.017,0.102,0.001,0.417,0.627c0.739,1.469,1.566,2.629,2.691,3.775c1.678,1.709,3.484,2.874,5.746,3.707
	c1.419,0.523,3.417,0.924,4.815,0.966c1.927,0.059,4.97-0.731,7.3-1.896c1.3-0.649,2.08-1.285,4.801-3.909
	c1.515-1.461,6.48-6.416,7.914-7.898l1.05-1.085l0.153-0.01l0.153-0.01l-5.373,5.377c-2.955,2.958-5.541,5.526-5.746,5.708
	c-2.122,1.88-4.761,3.134-7.559,3.593C17.374,63.21,15.819,63.275,14.78,63.183L14.78,63.183z"/>
<path id="path3003" inkscape:connector-curvature="0" fill="#FFFFFF" d="M0,0"/>
<path id="path3005" inkscape:connector-curvature="0" fill="#FFFFFF" d="M28.117,48.289c2.833-2.835,5.159-5.147,5.168-5.138
	s-0.09,0.127-0.221,0.261c-0.131,0.135-0.633,0.656-1.117,1.159c-1.554,1.616-3.735,3.819-5.551,5.607
	c-1.8,1.773-3.321,3.231-3.391,3.253C22.984,53.438,25.284,51.124,28.117,48.289z"/>
<path id="path3007" inkscape:connector-curvature="0" fill="#FFFFFF" d="M22.483,20.993c0.537-1.031,1.147-1.943,1.901-2.839
	c0.328-0.39,13.085-13.171,13.565-13.59c0.656-0.573,1.318-1.067,2.021-1.507c0.329-0.206,0.376-0.225,0.542-0.225l0.182,0
	l-0.237,0.13c-0.774,0.423-1.495,0.996-2.981,2.373c-0.411,0.381-2.739,2.686-5.172,5.122c-5.175,5.181-6.965,7.024-8.104,8.341
	c-0.807,0.933-1.192,1.478-1.577,2.229c-0.199,0.388-0.241,0.449-0.312,0.449C22.235,21.476,22.242,21.456,22.483,20.993z"/>
<path id="path3009" inkscape:connector-curvature="0" fill="#FFFFFF" d="M30.547,21.012c0.076-0.251,10.195-10.365,10.283-10.277
	c0.008,0.008-2.305,2.333-5.14,5.166S30.541,21.034,30.547,21.012z"/>
<path id="path3011" inkscape:connector-curvature="0" fill="#FFFFFF" d="M63.076,14.691c-0.007-0.023-0.031-0.157-0.052-0.297
	c-0.098-0.65-0.314-1.655-0.492-2.288C61.026,6.751,56.951,2.765,51.566,1.38c-1.378-0.354-3.123-0.606-3.881-0.56
	c-1.925,0.117-4.834,0.929-6.72,1.875c-0.21,0.105-0.659,0.177-0.533,0.085c0.113-0.082,1.248-0.647,1.615-0.803
	c2.623-1.117,5.615-1.472,8.452-1.004c3.735,0.617,7.106,2.617,9.479,5.626c1.713,2.171,2.786,4.76,3.134,7.558
	c0.027,0.214,0.048,0.431,0.048,0.483C63.159,14.734,63.101,14.77,63.076,14.691z"/>
<path id="path3013" inkscape:connector-curvature="0" fill="#FFFFFF" d="M44.007,8.158c0-0.03,0.636-0.355,0.929-0.475
	c0.42-0.173,0.979-0.31,1.514-0.372c0.614-0.071,0.791-0.062,0.282,0.015c-0.822,0.125-1.695,0.38-2.378,0.698
	C44.024,8.176,44.007,8.183,44.007,8.158z"/>
</svg>
