<?xml version="1.0" encoding="utf-8"?>
<!-- Generator: Adobe Illustrator 17.0.0, SVG Export Plug-In . SVG Version: 6.00 Build 0)  -->
<!DOCTYPE svg PUBLIC "-//W3C//DTD SVG 1.1//EN" "http://www.w3.org/Graphics/SVG/1.1/DTD/svg11.dtd">
<svg version="1.1" id="Ebene_1" xmlns="http://www.w3.org/2000/svg" xmlns:xlink="http://www.w3.org/1999/xlink" x="0px" y="0px"
	 width="1084px" height="1084px" viewBox="0 0 1084 1084" enable-background="new 0 0 1084 1084" xml:space="preserve">
<circle fill="#FFFFFF" cx="542" cy="542" r="537.478"/>
<g>
	<path d="M408.172,637.735c-19.04,18.976-6.232,35.085-31.856,63.595c-11.566,12.886,41.818,3.755,70.738-25.088
		c12.281-12.253,10.776-28.058,0.04-38.697C436.359,626.927,420.441,625.483,408.172,637.735z"/>
	<path d="M176.529,545.906c-6.779,6.779-16.636,7.911-22.017,2.531l0,0c-5.381-5.381-4.248-15.238,2.531-22.017L319.61,363.851
		c6.779-6.779,16.636-7.912,22.017-2.531l0,0c5.381,5.381,4.248,15.238-2.531,22.017L176.529,545.906z"/>
	<path d="M339.097,700.663c6.779,6.779,7.912,16.636,2.531,22.017l0,0c-5.381,5.381-15.238,4.248-22.017-2.531L157.042,557.581
		c-6.779-6.779-7.912-16.636-2.531-22.017l0,0c5.381-5.381,15.238-4.248,22.017,2.531L339.097,700.663z"/>
	<path d="M907.472,545.906c6.779,6.779,16.636,7.911,22.017,2.531l0,0c5.381-5.381,4.248-15.238-2.531-22.017l-162.57-162.569
		c-6.779-6.779-16.636-7.912-22.017-2.531l0,0c-5.381,5.381-4.248,15.238,2.53,22.017L907.472,545.906z"/>
	<path d="M744.903,700.663c-6.779,6.779-7.911,16.636-2.53,22.017l0,0c5.381,5.381,15.238,4.248,22.017-2.531l162.569-162.569
		c6.779-6.779,7.911-16.636,2.531-22.017l0,0c-5.381-5.381-15.238-4.248-22.017,2.531L744.903,700.663z"/>
	<path d="M709.287,372.267c5.697,5.697,5.023,15.608-1.506,22.138L471.949,630.237c-6.529,6.529-16.441,7.204-22.138,1.506l0,0
		c-5.697-5.697-5.023-15.608,1.506-22.138l235.832-235.832C693.677,367.244,703.588,366.57,709.287,372.267L709.287,372.267z"/>
</g>
</svg>
