<?xml version="1.0" encoding="UTF-8" standalone="no"?>
<!-- Generated by IcoMoon.io -->

<svg
   xmlns:dc="http://purl.org/dc/elements/1.1/"
   xmlns:cc="http://creativecommons.org/ns#"
   xmlns:rdf="http://www.w3.org/1999/02/22-rdf-syntax-ns#"
   xmlns:svg="http://www.w3.org/2000/svg"
   xmlns="http://www.w3.org/2000/svg"
   xmlns:sodipodi="http://sodipodi.sourceforge.net/DTD/sodipodi-0.dtd"
   xmlns:inkscape="http://www.inkscape.org/namespaces/inkscape"
   version="1.1"
   width="32"
   height="32"
   viewBox="0 0 32 32"
   id="svg2997"
   inkscape:version="0.48.5 r10040"
   sodipodi:docname="mobile3.svg">
  <metadata
     id="metadata3005">
    <rdf:RDF>
      <cc:Work
         rdf:about="">
        <dc:format>image/svg+xml</dc:format>
        <dc:type
           rdf:resource="http://purl.org/dc/dcmitype/StillImage" />
        <dc:title></dc:title>
      </cc:Work>
    </rdf:RDF>
  </metadata>
  <defs
     id="defs3003" />
  <sodipodi:namedview
     pagecolor="#ffffff"
     bordercolor="#666666"
     borderopacity="1"
     objecttolerance="10"
     gridtolerance="10"
     guidetolerance="10"
     inkscape:pageopacity="0"
     inkscape:pageshadow="2"
     inkscape:window-width="1920"
     inkscape:window-height="1017"
     id="namedview3001"
     showgrid="false"
     inkscape:zoom="20.85965"
     inkscape:cx="16"
     inkscape:cy="16"
     inkscape:window-x="-8"
     inkscape:window-y="-8"
     inkscape:window-maximized="1"
     inkscape:current-layer="svg2997" />
  <path
     d="M 23.363637,0 H 8.6363637 C 7.7363636,0 7,0.736364 7,1.6363633 V 24.545456 c 0,0.9 0.7363636,1.636364 1.6363637,1.636364 H 23.363637 C 24.263636,26.18182 25,25.445456 25,24.545456 V 1.6363633 C 25,0.736364 24.263636,0 23.363637,0 z M 16,25.000365 c -0.702818,0 -1.273091,-0.570273 -1.273091,-1.27309 0,-0.702819 0.570273,-1.273092 1.273091,-1.273092 0.702818,0 1.273091,0.570273 1.273091,1.273092 0,0.702817 -0.570273,1.27309 -1.273091,1.27309 z m 7.363637,-3.727636 H 8.6363637 V 3.2727275 H 23.363637 V 21.272729 z"
     id="path2999"
     inkscape:connector-curvature="0"
     style="fill:#444444" />
</svg>
