<?xml version="1.0" encoding="utf-8"?>
<!-- Generator: Adobe Illustrator 17.0.0, SVG Export Plug-In . SVG Version: 6.00 Build 0)  -->
<!DOCTYPE svg PUBLIC "-//W3C//DTD SVG 1.1//EN" "http://www.w3.org/Graphics/SVG/1.1/DTD/svg11.dtd">
<svg version="1.1"
	 id="svg2987" xmlns:dc="http://purl.org/dc/elements/1.1/" xmlns:cc="http://creativecommons.org/ns#" xmlns:rdf="http://www.w3.org/1999/02/22-rdf-syntax-ns#" xmlns:svg="http://www.w3.org/2000/svg" xmlns:inkscape="http://www.inkscape.org/namespaces/inkscape" xmlns:sodipodi="http://sodipodi.sourceforge.net/DTD/sodipodi-0.dtd" sodipodi:docname="display.svg" inkscape:version="0.48.5 r10040"
	 xmlns="http://www.w3.org/2000/svg" xmlns:xlink="http://www.w3.org/1999/xlink" x="0px" y="0px" width="36.571px" height="32px"
	 viewBox="0 0 36.571 32" enable-background="new 0 0 36.571 32" xml:space="preserve">
<sodipodi:namedview  inkscape:cy="21.423729" guidetolerance="10" fit-margin-left="0" borderopacity="1" inkscape:cx="16" fit-margin-top="0" inkscape:zoom="14.75" showgrid="false" objecttolerance="10" gridtolerance="10" pagecolor="#ffffff" bordercolor="#666666" id="namedview2991" inkscape:current-layer="svg2987" inkscape:window-maximized="1" inkscape:window-y="-8" inkscape:window-x="-8" fit-margin-bottom="0" fit-margin-right="0" inkscape:window-height="1017" inkscape:window-width="1920" inkscape:pageshadow="2" inkscape:pageopacity="0">
	</sodipodi:namedview>
<path id="path2999" inkscape:connector-curvature="0" fill="#444444" d="M27.267,0.068H9.305c-1.098,0-1.996,0.898-1.996,1.996
	v27.94C7.309,31.102,8.207,32,9.305,32h17.962c1.098,0,1.996-0.898,1.996-1.996V2.064C29.262,0.966,28.364,0.068,27.267,0.068z
	 M18.286,30.559c-0.857,0-1.553-0.696-1.553-1.553c0-0.857,0.696-1.553,1.553-1.553s1.553,0.696,1.553,1.553
	C19.838,29.864,19.143,30.559,18.286,30.559z M27.267,26.013H9.305V4.06h17.962C27.267,4.06,27.267,26.013,27.267,26.013z"/>
</svg>
