<?xml version="1.0" encoding="utf-8"?>
<!-- Generator: Adobe Illustrator 17.0.0, SVG Export Plug-In . SVG Version: 6.00 Build 0)  -->
<!DOCTYPE svg PUBLIC "-//W3C//DTD SVG 1.1//EN" "http://www.w3.org/Graphics/SVG/1.1/DTD/svg11.dtd">
<svg version="1.1"
	 id="svg2" xmlns:dc="http://purl.org/dc/elements/1.1/" xmlns:cc="http://creativecommons.org/ns#" xmlns:rdf="http://www.w3.org/1999/02/22-rdf-syntax-ns#" xmlns:svg="http://www.w3.org/2000/svg" xmlns:sodipodi="http://sodipodi.sourceforge.net/DTD/sodipodi-0.dtd" xmlns:inkscape="http://www.inkscape.org/namespaces/inkscape" sodipodi:docname="twitter_bootstrap_logo.svg" inkscape:version="0.48.1 r9760"
	 xmlns="http://www.w3.org/2000/svg" xmlns:xlink="http://www.w3.org/1999/xlink" x="0px" y="0px" width="2000px"
	 height="2008.276px" viewBox="0 0 2000 2008.276" enable-background="new 0 0 2000 2008.276" xml:space="preserve">
<sodipodi:namedview  inkscape:cy="407.66551" fit-margin-top="0" fit-margin-left="0" showgrid="false" id="namedview2996" gridtolerance="10" inkscape:zoom="0.24896372" guidetolerance="10" inkscape:cx="116.80866" objecttolerance="10" borderopacity="1" bordercolor="#666666" pagecolor="#ffffff" inkscape:current-layer="svg2" inkscape:window-maximized="0" inkscape:window-y="0" inkscape:window-x="0" inkscape:pageopacity="0" fit-margin-bottom="0" fit-margin-right="0" inkscape:window-height="623" inkscape:window-width="864" inkscape:pageshadow="2">
	</sodipodi:namedview>
<path fill="#CF649A" d="M1713.371,1114.133c-69.121,0.386-128.975,16.991-179.175,41.705c-18.535-36.685-37.071-68.735-40.16-92.677
	c-3.475-27.803-7.723-44.794-3.475-78.003s23.555-80.32,23.555-84.181c-0.386-3.475-4.248-20.466-44.021-20.852
	c-39.774-0.386-74.141,7.723-78.003,18.149c-3.861,10.426-11.585,34.368-16.604,59.081
	c-6.951,36.298-79.548,164.887-120.866,232.464c-13.515-26.258-25.1-49.428-27.417-67.963c-3.475-27.803-7.723-44.794-3.475-78.003
	c4.248-33.209,23.555-80.32,23.555-84.181c-0.386-3.475-4.248-20.466-44.021-20.852c-39.774-0.386-74.141,7.723-78.003,18.149
	c-3.861,10.426-8.109,35.14-16.604,59.081c-8.109,23.942-104.648,238.643-129.747,294.635
	c-12.743,28.575-23.942,51.358-32.051,66.804c-8.109,15.446-0.386,1.158-1.159,2.703c-6.951,13.129-10.812,20.466-10.812,20.466
	v0.386c-5.406,9.654-11.198,18.921-13.901,18.921c-1.931,0-5.792-25.872,0.772-61.398c14.288-74.527,49.041-190.76,48.655-195.007
	c0-1.931,6.565-22.397-22.397-32.823c-28.189-10.426-38.229,6.951-40.546,6.951s-4.248,6.178-4.248,6.178
	s31.278-130.906-59.854-130.906c-57.151,0-135.926,62.171-174.927,118.935c-24.714,13.515-77.231,42.091-132.837,72.597
	c-21.238,11.585-43.249,23.941-64.101,35.14l-4.248-4.634c-110.44-117.777-314.715-201.186-306.22-359.509
	c3.089-57.537,23.169-209.295,392.332-393.104c302.358-150.6,544.476-109.281,586.567-17.377
	c59.854,131.292-129.361,375.341-443.69,410.481c-119.708,13.515-182.651-32.823-198.483-50.2
	c-16.605-18.149-18.922-18.921-25.1-15.446c-10.04,5.406-3.862,21.625,0,31.278c9.268,24.328,47.883,67.577,113.529,89.201
	c57.537,18.921,198.097,29.348,368.004-36.298c190.374-73.755,339.043-278.417,295.407-449.482
	c-44.408-174.155-333.25-231.306-606.261-134.381C480.77,368.085,304.685,458.445,178.026,576.994
	C27.427,717.554,3.485,840.351,13.525,891.323c35.14,181.878,285.753,300.427,386.153,388.084c-5.02,2.703-9.654,5.406-13.901,7.723
	c-50.2,24.714-241.346,124.727-289.229,230.534c-54.061,119.708,8.495,205.82,50.2,217.404
	c128.975,35.912,261.04-28.575,332.478-134.767c71.052-106.192,62.557-244.049,29.734-306.992l-1.158-2.317l39.388-23.169
	c25.486-15.06,50.586-28.962,72.597-40.932c-12.357,33.595-21.238,73.369-25.872,131.292
	c-5.406,67.963,22.397,156.006,59.081,190.76c16.218,15.06,35.526,15.446,47.497,15.446c42.477,0,61.784-35.14,83.023-77.231
	c26.258-51.358,49.428-110.826,49.428-110.826s-28.961,161.026,50.2,161.026c28.961,0,57.923-37.457,71.052-56.765v0.386
	c0,0,0.772-1.158,2.317-3.862c3.089-4.634,4.634-7.337,4.634-7.337v-0.772c11.585-20.08,37.457-66.032,76.072-142.104
	c49.814-98.083,97.697-220.88,97.697-220.88s4.634,30.12,18.921,79.547c8.495,29.348,27.031,61.398,41.318,92.677
	c-11.585,16.219-18.535,25.486-18.535,25.486l0.386,0.386c-9.268,12.357-19.694,25.486-30.506,38.615
	c-39.388,47.111-86.498,100.786-92.677,116.232c-7.337,18.149-5.792,31.665,8.495,42.477c10.426,7.723,28.961,9.268,48.655,7.723
	c35.526-2.317,60.24-11.198,72.597-16.604c19.308-6.951,41.318-17.377,62.557-32.823c38.615-28.575,62.171-69.121,59.854-123.183
	c-1.158-29.734-10.812-59.081-22.783-86.885c3.475-5.02,6.951-10.04,10.426-15.446c61.012-89.201,108.123-187.284,108.123-187.284
	s4.634,30.12,18.921,79.548c7.337,25.1,22.011,52.517,35.14,79.548c-57.151,46.725-93.063,100.786-105.42,136.312
	c-22.783,65.646-5.02,95.38,28.575,102.331c15.06,3.089,36.685-3.862,52.903-10.812c20.08-6.565,44.408-17.763,66.804-34.368
	c38.615-28.575,75.686-68.349,73.755-122.024c-1.158-24.714-7.723-49.042-16.604-72.211c48.655-20.08,111.598-31.665,191.532-22.011
	c171.838,20.08,205.82,127.431,199.255,172.224c-6.565,44.794-42.477,69.508-54.448,77.231
	c-11.971,7.337-15.832,10.04-14.674,15.446c1.545,8.109,6.951,7.723,17.377,6.178c14.288-2.317,90.36-36.685,93.449-119.321
	C1992.947,1228.821,1892.161,1112.975,1713.371,1114.133L1713.371,1114.133z M388.093,1560.912
	c-56.765,62.171-136.698,85.726-170.68,65.646c-36.685-21.238-22.397-112.757,47.497-178.789
	c42.477-40.16,97.697-77.231,133.995-100.014c8.109-5.02,20.466-12.357,35.14-21.238c2.317-1.545,3.862-2.317,3.862-2.317
	c2.703-1.545,5.792-3.475,8.882-5.406C472.661,1413.016,447.947,1495.653,388.093,1560.912L388.093,1560.912z M803.208,1278.635
	c-19.694,48.269-61.398,172.224-86.498,165.274c-21.625-5.792-34.754-99.628-4.248-192.304
	c15.446-46.725,48.269-102.331,67.577-123.955c31.278-34.754,65.26-46.338,73.755-32.051
	C863.834,1114.133,815.565,1248.514,803.208,1278.635z M1145.726,1442.363c-8.495,4.248-16.219,7.337-19.694,5.02
	c-2.703-1.545,3.475-7.337,3.475-7.337s42.863-45.952,59.854-67.191c9.654-12.357,21.238-26.645,33.595-42.863v4.634
	C1222.957,1390.233,1169.668,1427.303,1145.726,1442.363z M1409.855,1382.124c-6.178-4.634-5.406-18.922,15.446-63.715
	c8.109-17.763,26.645-47.497,58.695-75.686c3.861,11.585,6.178,22.783,5.792,33.209
	C1489.402,1345.439,1439.975,1371.311,1409.855,1382.124z"/>
</svg>
